<?xml version="1.0" encoding="UTF-8"?>
<svg version="1.1" xmlns="http://www.w3.org/2000/svg" width="274" height="274">
<path d="M0 0 C0.69319336 0.33547852 1.38638672 0.67095703 2.10058594 1.01660156 C11.33189239 5.56067842 19.97830262 10.50733171 28 17 C28.55284668 17.44746582 29.10569336 17.89493164 29.67529297 18.35595703 C56.8094795 40.50011854 76.20399433 71.88958399 80.6015625 107.11328125 C82.18678493 123.75811681 81.88421994 140.70417948 78 157 C77.8443457 157.6811084 77.68869141 158.3622168 77.52832031 159.06396484 C71.89493741 182.9299433 59.12496616 202.88967765 43 221 C42.36835938 221.71671875 41.73671875 222.4334375 41.0859375 223.171875 C19.51779497 246.16522518 -14.47379319 261.82658828 -45.94384766 263.12109375 C-88.08396482 264.37024499 -123.25031168 251.35241561 -154.34375 222.6171875 C-172.96301256 204.27173763 -184.91815823 180.20897861 -191 155 C-191.19432617 154.19941162 -191.38865234 153.39882324 -191.58886719 152.57397461 C-193.41748866 143.96951199 -193.39939659 135.31646924 -193.375 126.5625 C-193.3737915 125.76286835 -193.37258301 124.96323669 -193.37133789 124.13937378 C-193.21985377 87.20726821 -179.27900744 55.83323213 -154 29 C-153.40058594 28.33613281 -152.80117187 27.67226563 -152.18359375 26.98828125 C-136.60240314 10.39751026 -115.33127157 -0.03443582 -94 -7 C-93.27635254 -7.24153809 -92.55270508 -7.48307617 -91.80712891 -7.73193359 C-63.39103058 -16.7255583 -26.50411702 -12.8272684 0 0 Z " fill="#0CC0DE" transform="translate(193,11)"/>
<path d="M0 0 C0.33 0 0.66 0 1 0 C1.13535156 0.73863281 1.27070312 1.47726563 1.41015625 2.23828125 C4.74112469 17.93571934 14.10742108 28.1126527 27.1628418 36.79272461 C34.94606606 41.77913128 43.1244425 46.1296531 51.28051758 50.47094727 C61.17101106 55.81636456 72.75863008 62.51726016 78 73 C78.14779962 74.9753988 78.22118966 76.95678924 78.25 78.9375 C78.27578125 79.99839844 78.3015625 81.05929688 78.328125 82.15234375 C78 85 78 85 76.484375 86.87890625 C75.99453125 87.24886719 75.5046875 87.61882812 75 88 C74.72027344 87.35933594 74.44054687 86.71867187 74.15234375 86.05859375 C66.34099949 69.20517895 49.76558391 62.78369154 33.8125 55 C19.55356677 47.99890174 4.99103592 40.50628937 -1.40893555 25.01391602 C-2.53903765 21.16335334 -2.38983348 17.29362779 -2.3125 13.3125 C-2.31572266 12.47138672 -2.31894531 11.63027344 -2.32226562 10.76367188 C-2.28551281 6.55046252 -2.11378621 3.72949938 0 0 Z " fill="#E6E9EA" transform="translate(93,101)"/>
<path d="M0 0 C0.66 0 1.32 0 2 0 C2.350625 1.155 2.70125 2.31 3.0625 3.5 C9.22444918 19.67511659 28.7226533 26.94616265 43.19897461 34.0534668 C50.43691888 37.6142838 57.38208082 41.35077274 64 46 C64.65355469 46.45632812 65.30710937 46.91265625 65.98046875 47.3828125 C71.68966497 51.79389126 76.72416413 58.45073379 78.68359375 65.4375 C79.05623779 68.45545664 79.16958894 71.39620199 79.1875 74.4375 C79.20167969 75.52933594 79.21585937 76.62117188 79.23046875 77.74609375 C78.99055478 81.13335377 78.20639188 83.83858571 77 87 C75.24055528 84.36083292 74.31354348 82.31373855 73.25 79.375 C65.47041624 59.85531711 47.87183215 50.69203678 30.48828125 40.8828125 C29.5638623 40.35993652 28.63944336 39.83706055 27.68701172 39.29833984 C25.91078538 38.29808878 24.13012744 37.30564866 22.34423828 36.32275391 C13.06201731 31.13057376 3.95864912 25.01760526 -1.375 15.5625 C-2.71800025 10.05619896 -2.56526138 5.13052276 0 0 Z " fill="#E5E9EA" transform="translate(104,84)"/>
<path d="M0 0 C0.66 0 1.32 0 2 0 C2.20625 1.2375 2.4125 2.475 2.625 3.75 C5.69672623 17.3687023 13.05145773 25.84882637 24.47412109 33.24072266 C31.98994845 37.8455849 40.04885198 41.4686288 48.05371094 45.13134766 C59.95013096 50.6543151 74.88835709 57.93414203 80 71 C80.23046875 73.4375 80.23046875 73.4375 80.1875 76 C80.18105469 76.845625 80.17460937 77.69125 80.16796875 78.5625 C80.01154076 80.83252477 79.63089814 82.81961604 79 85 C78.34 85 77.68 85 77 85 C76.79375 83.989375 76.5875 82.97875 76.375 81.9375 C73.49137392 72.36386142 65.30797842 68.56463106 57.0322876 64.07150269 C50.20034468 60.46943121 43.16278074 57.25323238 36.15991211 54 C22.05932352 47.43009773 5.96535793 39.43974994 0 24 C-1.06992362 19.78764335 -1.13361228 15.77378282 -1.125 11.4375 C-1.12757812 10.13683594 -1.13015625 8.83617188 -1.1328125 7.49609375 C-1.0287834 4.75768065 -0.82835366 2.58367451 0 0 Z " fill="#E5E9EA" transform="translate(86,116)"/>
<path d="M0 0 C1.05239592 1.57859387 2.09336394 3.16971972 3.0078125 4.83203125 C10.51546661 18.14105444 27.50364732 23.92982784 40.74780273 30.09765625 C55.68698778 37.07583621 70.62492353 44.20316582 78.1862793 59.74145508 C79.62330335 63.73002678 79.49937774 67.61966077 79.375 71.8125 C79.37371094 72.65748047 79.37242187 73.50246094 79.37109375 74.37304688 C79.28240412 80.57639382 79.28240412 80.57639382 77 84 C76.79246094 83.17757812 76.58492188 82.35515625 76.37109375 81.5078125 C72.1950156 66.37608164 64.10486242 57.26430868 50.6875 49.625 C44.64656571 46.26470342 38.45598643 43.28332944 32.1875 40.375 C19.68950924 34.55937457 3.52966044 26.94183208 -1.6875 13.1875 C-2.37971003 8.34202981 -2.80834758 4.21252137 0 0 Z " fill="#E5E9EA" transform="translate(109,73)"/>
<path d="M0 0 C1.4783226 2.95664519 1.06032783 5.74229737 1 9 C0.14470703 9.40202637 -0.71058594 9.80405273 -1.59179688 10.21826172 C-35.10116163 23.88559823 -35.10116163 23.88559823 -59 49 C-61.18509791 44.62980419 -60.2834784 39.89768159 -58.875 35.4375 C-49.91799077 19.01631641 -28.64129722 9.86603031 -12.25 2.375 C-11.48727783 2.01978271 -10.72455566 1.66456543 -9.9387207 1.29858398 C-3.73653952 -1.44888264 -3.73653952 -1.44888264 0 0 Z " fill="#E5EAEB" transform="translate(160,195)"/>
<path d="M0 0 C0.66 0.33 1.32 0.66 2 1 C2.44027424 10.16422669 1.47912241 15.29360112 -4.56567383 22.45922852 C-6.86516135 24.92936736 -9.49657589 26.88822977 -12.25 28.8125 C-12.85497314 29.23772949 -13.45994629 29.66295898 -14.08325195 30.10107422 C-27.07907665 39.0116473 -41.44168669 45.13512515 -56 51 C-58.99207891 45.85362428 -58.99207891 45.85362428 -59.02294922 42.52685547 C-57.49673704 38.75685642 -54.59675733 37.82010612 -51.0703125 36.2578125 C-50.36534637 35.92635223 -49.66038025 35.59489197 -48.93405151 35.25338745 C-46.67208457 34.19296678 -44.39970603 33.15777437 -42.125 32.125 C-39.1644223 30.76287737 -36.20905209 29.39004803 -33.2578125 28.0078125 C-32.54091751 27.67234909 -31.82402252 27.33688568 -31.08540344 26.99125671 C-20.2580174 21.84101218 -6.83471598 14.94009247 -1 4 C-0.23060319 1.77397385 -0.23060319 1.77397385 0 0 Z " fill="#E6EAEB" transform="translate(171,29)"/>
<path d="M0 0 C0.66 0.33 1.32 0.66 2 1 C3.67499516 6.02498547 3.9936295 10.54247361 1.9765625 15.53125 C-4.59458377 27.29396488 -15.528588 33.70104344 -27 40 C-27.84256348 40.4635791 -28.68512695 40.9271582 -29.55322266 41.40478516 C-32.23056471 42.85908971 -34.92342941 44.27877646 -37.625 45.6875 C-38.47811768 46.14624512 -39.33123535 46.60499023 -40.21020508 47.07763672 C-46.26646371 50.15427154 -46.26646371 50.15427154 -49.87890625 49.39453125 C-50.57886719 48.93433594 -51.27882813 48.47414062 -52 48 C-53.093125 47.34 -54.18625 46.68 -55.3125 46 C-56.199375 45.34 -57.08625 44.68 -58 44 C-58 43.34 -58 42.68 -58 42 C-57.319375 41.731875 -56.63875 41.46375 -55.9375 41.1875 C-47.04160898 37.59128874 -38.50242815 33.4377714 -30 29 C-29.3723877 28.67628418 -28.74477539 28.35256836 -28.09814453 28.01904297 C-15.39185082 21.40181243 -4.68507086 14.05521257 0 0 Z " fill="#E7ECED" transform="translate(175,39)"/>
<path d="M0 0 C2.30330627 1.44549056 3.99079836 3.13431276 6 5 C3.03665029 7.38093719 0.08424313 9.01913763 -3.3671875 10.6015625 C-4.41124756 11.08713623 -5.45530762 11.57270996 -6.53100586 12.07299805 C-7.63452393 12.58515869 -8.73804199 13.09731934 -9.875 13.625 C-35.65895674 25.70852434 -35.65895674 25.70852434 -52 48 C-55.0046624 43.4930064 -54.67534213 39.27928738 -54 34 C-48.62550544 18.74953067 -28.88538483 10.35575743 -15.5625 3.4375 C-14.70994629 2.98318604 -13.85739258 2.52887207 -12.97900391 2.06079102 C-8.32793159 -0.29227171 -5.18751921 -1.86099344 0 0 Z " fill="#E8ECEC" transform="translate(150,186)"/>
<path d="M0 0 C0.33 0 0.66 0 1 0 C1.01417969 0.96679688 1.02835937 1.93359375 1.04296875 2.9296875 C1.46197269 14.36736269 3.8700737 22.46970404 12 31 C14.04695328 32.66052434 15.99861207 34.12468597 18.1875 35.5625 C19.12517212 36.18596313 19.12517212 36.18596313 20.08178711 36.82202148 C27.54332596 41.60304034 35.53989895 45.3492231 43.48828125 49.23901367 C58.3699889 56.56373982 71.43818821 63.65764632 79 79 C79.33 79.66 79.66 80.32 80 81 C79.01 81 78.02 81 77 81 C77 82.65 77 84.3 77 86 C76.67 86 76.34 86 76 86 C75.88785156 85.05640625 75.88785156 85.05640625 75.7734375 84.09375 C74.27689481 74.35155052 69.60903319 68.54038869 61.765625 62.76171875 C56.57282277 59.45387439 51.00461093 56.88299419 45.47070312 54.20556641 C40.66061938 51.85851171 35.88938758 49.4382093 31.125 47 C30.1747998 46.52602783 29.22459961 46.05205566 28.24560547 45.5637207 C16.80483216 39.68573665 4.69473457 31.07802756 -0.421875 18.78515625 C-1.70162673 12.61986583 -0.70026964 6.20347561 0 0 Z " fill="#1DC2DF" transform="translate(90,109)"/>
<path d="M0 0 C0.41765625 0.87398438 0.41765625 0.87398438 0.84375 1.765625 C7.47379511 14.57773919 19.03017753 20.81020476 31.54541016 26.81054688 C36.35553846 29.14145448 41.11760362 31.56368628 45.875 34 C46.82528076 34.47405273 47.77556152 34.94810547 48.75463867 35.43652344 C61.15405357 41.80650797 73.45916829 51.04317741 77.91015625 64.81640625 C80 72.27180233 80 72.27180233 80 75 C78.68 75.33 77.36 75.66 76 76 C75.93683594 75.18917969 75.87367188 74.37835938 75.80859375 73.54296875 C74.6244893 62.83617166 70.99347822 55.13844648 62.8125 48 C52.31569983 40.20328998 40.13947841 34.49734392 28.4375 28.75 C3.19559199 16.30706985 3.19559199 16.30706985 -1 4 C-0.6875 1.625 -0.6875 1.625 0 0 Z " fill="#20C3DF" transform="translate(107,84)"/>
<path d="M0 0 C6.20856215 3.10428108 11.51883993 6.85275181 13.9375 13.625 C14.00617238 16.23455054 13.64900831 18.47607881 13 21 C12.67 21 12.34 21 12 21 C11.34 18.03 10.68 15.06 10 12 C4.16206797 12.55326807 -0.54263526 14.85730513 -5.75 17.375 C-6.66869873 17.81690674 -7.58739746 18.25881348 -8.53393555 18.71411133 C-32.73087531 30.4646065 -32.73087531 30.4646065 -49 51 C-49.875 49 -49.875 49 -50 46 C-39.93555432 26.65481548 -13.39797241 17.57552969 5 9 C5 8.34 5 7.68 5 7 C3.03852126 5.61061923 1.03833424 4.2739589 -1 3 C-0.67 2.01 -0.34 1.02 0 0 Z " fill="#1EC2DF" transform="translate(149,183)"/>
<path d="M0 0 C0.66 0 1.32 0 2 0 C1.23169213 8.14406341 -4.1955565 12.82743639 -10.2578125 17.8828125 C-21.37914819 25.98819275 -40.91806953 40 -55 40 C-55 40.66 -55 41.32 -55 42 C-54.401875 42.268125 -53.80375 42.53625 -53.1875 42.8125 C-51.02775192 43.98493467 -49.64209744 45.19369282 -48 47 C-48.66 47.66 -49.32 48.32 -50 49 C-56.80377587 43.79540222 -60.57668218 39.26978387 -63 31 C-62.01 31 -61.02 31 -60 31 C-58.515 34.465 -58.515 34.465 -57 38 C-25.06932856 25.87879046 -25.06932856 25.87879046 -1 3 C-0.67 2.01 -0.34 1.02 0 0 Z " fill="#20C3DF" transform="translate(172,41)"/>
<path d="M0 0 C0.33 0 0.66 0 1 0 C1.01417969 0.96679688 1.02835937 1.93359375 1.04296875 2.9296875 C1.45643618 14.21623088 3.71334165 22.71334165 12 31 C14.91977924 33.1369042 17.91773223 35.10631915 21 37 C19.68 37.66 18.36 38.32 17 39 C9.16930832 32.56312075 1.59144854 26.23443041 -1 16 C-1.34318272 10.6184424 -0.74330093 5.32473759 0 0 Z " fill="#22C3DE" transform="translate(90,109)"/>
<path d="M0 0 C0.33 0 0.66 0 1 0 C1.02578125 0.96679688 1.0515625 1.93359375 1.078125 2.9296875 C1.4318931 11.05027338 2.26710417 17.62101986 6 25 C5.01 25 4.02 25 3 25 C-2.23287305 16.91487425 -1.02864517 9.1124545 0 0 Z " fill="#39C5DD" transform="translate(90,109)"/>
<path d="M0 0 C0.33 0 0.66 0 1 0 C1.15855469 0.76183594 1.31710938 1.52367188 1.48046875 2.30859375 C3.05240436 9.26506019 5.15799001 14.98641914 9 21 C6 20 6 20 4.61328125 17.8203125 C4.18402344 16.93085937 3.75476563 16.04140625 3.3125 15.125 C2.87550781 14.24070312 2.43851562 13.35640625 1.98828125 12.4453125 C1 10 1 10 1 7 C0.01 7.33 -0.98 7.66 -2 8 C-1.125 1.125 -1.125 1.125 0 0 Z " fill="#BDD6DB" transform="translate(93,101)"/>
<path d="M0 0 C0.66 0 1.32 0 2 0 C4.11161731 9.41002278 4.11161731 9.41002278 5 14 C3.68 13.01 2.36 12.02 1 11 C0.01 11.495 0.01 11.495 -1 12 C-1.14285714 3.42857143 -1.14285714 3.42857143 0 0 Z " fill="#BBD5DA" transform="translate(86,116)"/>
<path d="M0 0 C0.66 0 1.32 0 2 0 C2.81302325 1.45804169 3.62540131 2.91644315 4.4375 4.375 C4.88996094 5.18710938 5.34242188 5.99921875 5.80859375 6.8359375 C6.5650536 8.20996622 7.29854631 9.59709261 8 11 C7.01 11 6.02 11 5 11 C5 12.65 5 14.3 5 16 C4.67 16 4.34 16 4 16 C3.87882813 15.31292969 3.75765625 14.62585938 3.6328125 13.91796875 C3.46523437 13.01691406 3.29765625 12.11585938 3.125 11.1875 C2.96257812 10.29417969 2.80015625 9.40085938 2.6328125 8.48046875 C2.08811551 5.77272154 2.08811551 5.77272154 0 3 C0 2.01 0 1.02 0 0 Z " fill="#25C5E1" transform="translate(162,179)"/>
<path d="M0 0 C0.33 0 0.66 0 1 0 C1.05398987 2.27057377 1.09278742 4.54151288 1.125 6.8125 C1.14820313 8.07707031 1.17140625 9.34164062 1.1953125 10.64453125 C1 14 1 14 -1 17 C-1.66 14.03 -2.32 11.06 -3 8 C-2.34 8 -1.68 8 -1 8 C-0.67 5.36 -0.34 2.72 0 0 Z " fill="#D4D8D9" transform="translate(187,140)"/>
<path d="M0 0 C0.33 0 0.66 0 1 0 C0.25 7.625 0.25 7.625 -2 11 C-2.99 7.7 -3.98 4.4 -5 1 C-4.34 1 -3.68 1 -3 1 C-2.67 1.66 -2.34 2.32 -2 3 C-1.34 2.01 -0.68 1.02 0 0 Z " fill="#D0D8DA" transform="translate(182,160)"/>
<path d="M0 0 C0.66 0.33 1.32 0.66 2 1 C-1.3 3.97 -4.6 6.94 -8 10 C-8 7 -8 7 -6.25 5.17578125 C-5.5075 4.56089844 -4.765 3.94601563 -4 3.3125 C-3.2575 2.68988281 -2.515 2.06726563 -1.75 1.42578125 C-1.1725 0.95527344 -0.595 0.48476562 0 0 Z " fill="#ECF5F6" transform="translate(110,204)"/>
<path d="M0 0 C0.66 0.33 1.32 0.66 2 1 C2 1.99 2 2.98 2 4 C3.9375006 6.18777466 3.9375006 6.18777466 6 8 C2.56072421 6.7580393 -0.25207819 5.44259716 -3 3 C-3 2.34 -3 1.68 -3 1 C-2.01 0.67 -1.02 0.34 0 0 Z " fill="#C8D8DB" transform="translate(120,80)"/>
<path d="M0 0 C0.53625 0.2475 1.0725 0.495 1.625 0.75 C-3.55078125 3.97265625 -3.55078125 3.97265625 -5.375 4.75 C-6.365 4.42 -7.355 4.09 -8.375 3.75 C-2.95961538 -0.31153846 -2.95961538 -0.31153846 0 0 Z " fill="#0EC0DE" transform="translate(146.375,66.25)"/>
<path d="M0 0 C0.94875 0.350625 1.8975 0.70125 2.875 1.0625 C2.875 2.0525 2.875 3.0425 2.875 4.0625 C-2.875 2.3125 -2.875 2.3125 -5.125 0.0625 C-3.125 -0.9375 -3.125 -0.9375 0 0 Z " fill="#2DC6E0" transform="translate(140.125,111.9375)"/>
<path d="M0 0 C3.36720387 1.39332574 4.9859524 2.9789286 7 6 C4 6 4 6 1.8125 4.125 C0 2 0 2 0 0 Z " fill="#0FC0DF" transform="translate(111,94)"/>
<path d="M0 0 C4 1 4 1 4 1 Z " fill="#0BBFDE" transform="translate(159,273)"/>
<path d="M0 0 C4 1 4 1 4 1 Z " fill="#0CBFDE" transform="translate(111,273)"/>
<path d="M0 0 C1 4 1 4 1 4 Z " fill="#0BBFDE" transform="translate(273,159)"/>
<path d="M0 0 C1 4 1 4 1 4 Z " fill="#0CBFDE" transform="translate(273,111)"/>
<path d="M0 0 C1 4 1 4 1 4 Z " fill="#0CBFDE" transform="translate(0,108)"/>
<path d="M0 0 C4 1 4 1 4 1 Z " fill="#0BBFDE" transform="translate(103,1)"/>
<path d="M0 0 C4 1 4 1 4 1 Z " fill="#0BBFDE" transform="translate(162,0)"/>
<path d="M0 0 C4 1 4 1 4 1 Z " fill="#0BBFDE" transform="translate(108,0)"/>
<path d="M0 0 C3 1 3 1 3 1 Z " fill="#0DC0DE" transform="translate(164,272)"/>
<path d="M0 0 C3 1 3 1 3 1 Z " fill="#0CBFDE" transform="translate(106,272)"/>
<path d="M0 0 C3 1 3 1 3 1 Z " fill="#0EC1DE" transform="translate(168,271)"/>
<path d="M0 0 C3 1 3 1 3 1 Z " fill="#0BBFDE" transform="translate(102,271)"/>
<path d="M0 0 C3 1 3 1 3 1 Z " fill="#0DBEDE" transform="translate(172,270)"/>
<path d="M0 0 C3 1 3 1 3 1 Z " fill="#0CBFDE" transform="translate(98,270)"/>
<path d="M0 0 C3 1 3 1 3 1 Z " fill="#0DBFDF" transform="translate(95,269)"/>
<path d="" fill="#0BC0DE" transform="translate(0,0)"/>
<path d="" fill="#0CC0DE" transform="translate(0,0)"/>
<path d="" fill="#0BBFDE" transform="translate(0,0)"/>
<path d="" fill="#0BBEDE" transform="translate(0,0)"/>
<path d="" fill="#0BBFDE" transform="translate(0,0)"/>
<path d="" fill="#0BBFDE" transform="translate(0,0)"/>
<path d="" fill="#0BBFDE" transform="translate(0,0)"/>
<path d="" fill="#0ABFDE" transform="translate(0,0)"/>
<path d="" fill="#0BBFDE" transform="translate(0,0)"/>
<path d="" fill="#0BBFDE" transform="translate(0,0)"/>
<path d="" fill="#0BBFDE" transform="translate(0,0)"/>
<path d="" fill="#0BBFDE" transform="translate(0,0)"/>
<path d="" fill="#0ABEDE" transform="translate(0,0)"/>
<path d="" fill="#0BBFDE" transform="translate(0,0)"/>
<path d="M0 0 C3 1 3 1 3 1 Z " fill="#0DC0DE" transform="translate(183,6)"/>
<path d="M0 0 C3 1 3 1 3 1 Z " fill="#0BBFDE" transform="translate(90,5)"/>
<path d="M0 0 C3 1 3 1 3 1 Z " fill="#0BBEDE" transform="translate(93,4)"/>
<path d="M0 0 C3 1 3 1 3 1 Z " fill="#0BBFDE" transform="translate(171,2)"/>
<path d="M0 0 C3 1 3 1 3 1 Z " fill="#0BBFDD" transform="translate(100,2)"/>
<path d="M0 0 C3 1 3 1 3 1 Z " fill="#0ABFDE" transform="translate(167,1)"/>
<path d="M0 0 C2 1 2 1 2 1 Z " fill="#0BBEDE" transform="translate(176,269)"/>
<path d="M0 0 C2 1 2 1 2 1 Z " fill="#0BBFDE" transform="translate(179,268)"/>
<path d="M0 0 C2 1 2 1 2 1 Z " fill="#0ABFDE" transform="translate(92,268)"/>
<path d="M0 0 C2 1 2 1 2 1 Z " fill="#0BBFDF" transform="translate(182,267)"/>
<path d="M0 0 C2 1 2 1 2 1 Z " fill="#0BBFDE" transform="translate(89,267)"/>
<path d="M0 0 C2 1 2 1 2 1 Z " fill="#0BC0DE" transform="translate(185,266)"/>
<path d="M0 0 C2 1 2 1 2 1 Z " fill="#0CBFDE" transform="translate(87,266)"/>
<path d="M0 0 C2 1 2 1 2 1 Z " fill="#0CBEDE" transform="translate(187,265)"/>
<path d="M0 0 C2 1 2 1 2 1 Z " fill="#0BC0DE" transform="translate(84,265)"/>
<path d="M0 0 C2 1 2 1 2 1 Z " fill="#0ABFDE" transform="translate(190,264)"/>
<path d="M0 0 C2 1 2 1 2 1 Z " fill="#0CBFDF" transform="translate(82,264)"/>
<path d="M0 0 C2 1 2 1 2 1 Z " fill="#0CBFDE" transform="translate(192,263)"/>
<path d="M0 0 C2 1 2 1 2 1 Z " fill="#0CBFDE" transform="translate(194,262)"/>
<path d="M0 0 C2 1 2 1 2 1 Z " fill="#0BBFDF" transform="translate(77,262)"/>
<path d="M0 0 C2 1 2 1 2 1 Z " fill="#0CBFDD" transform="translate(196,261)"/>
<path d="M0 0 C2 1 2 1 2 1 Z " fill="#0BBFDE" transform="translate(75,261)"/>
<path d="M0 0 C2 1 2 1 2 1 Z " fill="#0DC0DD" transform="translate(198,260)"/>
<path d="M0 0 C2 1 2 1 2 1 Z " fill="#0BC0DE" transform="translate(73,260)"/>
<path d="M0 0 C2 1 2 1 2 1 Z " fill="#0CBFDE" transform="translate(200,259)"/>
<path d="M0 0 C2 1 2 1 2 1 Z " fill="#0CBFDD" transform="translate(202,258)"/>
<path d="M0 0 C2 1 2 1 2 1 Z " fill="#0ABFDE" transform="translate(204,257)"/>
<path d="M0 0 C2 1 2 1 2 1 Z " fill="#0BBEDD" transform="translate(66,256)"/>
<path d="M0 0 C2 1 2 1 2 1 Z " fill="#0BBEDD" transform="translate(207,255)"/>
<path d="M0 0 C2 1 2 1 2 1 Z " fill="#0BBEDE" transform="translate(61,253)"/>
<path d="M0 0 C2 1 2 1 2 1 Z " fill="#0BBFDE" transform="translate(212,252)"/>
<path d="M0 0 C2 1 2 1 2 1 Z " fill="#0BBFDE" transform="translate(58,251)"/>
<path d="M0 0 C2 1 2 1 2 1 Z " fill="#0CBFDD" transform="translate(225,242)"/>
<path d="M0 0 C2 1 2 1 2 1 Z " fill="#0CBEDD" transform="translate(44,240)"/>
<path d="" fill="#0BBFDE" transform="translate(0,0)"/>
<path d="" fill="#0CBFDE" transform="translate(0,0)"/>
<path d="" fill="#0BBFDE" transform="translate(0,0)"/>
<path d="" fill="#0BBFDD" transform="translate(0,0)"/>
<path d="" fill="#0CBFDE" transform="translate(0,0)"/>
<path d="" fill="#0CBFDD" transform="translate(0,0)"/>
<path d="" fill="#0BC0DD" transform="translate(0,0)"/>
<path d="" fill="#0BBFDE" transform="translate(0,0)"/>
<path d="" fill="#0CBFDD" transform="translate(0,0)"/>
<path d="" fill="#0CBFDD" transform="translate(0,0)"/>
<path d="" fill="#0AC0DF" transform="translate(0,0)"/>
<path d="" fill="#0BC0DD" transform="translate(0,0)"/>
<path d="" fill="#0BBFDE" transform="translate(0,0)"/>
<path d="" fill="#0BC0DE" transform="translate(0,0)"/>
<path d="" fill="#0EC1DF" transform="translate(0,0)"/>
<path d="" fill="#0BC0DE" transform="translate(0,0)"/>
<path d="" fill="#0DC0DE" transform="translate(0,0)"/>
<path d="" fill="#0DBFDE" transform="translate(0,0)"/>
<path d="" fill="#0CBFDE" transform="translate(0,0)"/>
<path d="" fill="#0BBFDE" transform="translate(0,0)"/>
<path d="" fill="#0BBFDD" transform="translate(0,0)"/>
<path d="" fill="#0ABFDE" transform="translate(0,0)"/>
<path d="" fill="#0BBFDE" transform="translate(0,0)"/>
<path d="" fill="#0BBFDE" transform="translate(0,0)"/>
<path d="" fill="#0BBFDF" transform="translate(0,0)"/>
<path d="" fill="#0BBFDE" transform="translate(0,0)"/>
<path d="" fill="#0BBFDE" transform="translate(0,0)"/>
<path d="" fill="#0BBFDE" transform="translate(0,0)"/>
<path d="" fill="#0BBFDE" transform="translate(0,0)"/>
<path d="" fill="#0BBFDE" transform="translate(0,0)"/>
<path d="" fill="#0BBFDE" transform="translate(0,0)"/>
<path d="" fill="#0BBFDD" transform="translate(0,0)"/>
<path d="" fill="#0BBFDE" transform="translate(0,0)"/>
<path d="" fill="#0ABFDE" transform="translate(0,0)"/>
<path d="" fill="#0DC0DE" transform="translate(0,0)"/>
<path d="" fill="#0ABFDE" transform="translate(0,0)"/>
<path d="" fill="#0BBEDE" transform="translate(0,0)"/>
<path d="" fill="#0CBFDF" transform="translate(0,0)"/>
<path d="" fill="#0BBFDE" transform="translate(0,0)"/>
<path d="" fill="#0ABFDE" transform="translate(0,0)"/>
<path d="" fill="#0BBFDD" transform="translate(0,0)"/>
<path d="" fill="#0BBFDE" transform="translate(0,0)"/>
<path d="" fill="#0ABFDE" transform="translate(0,0)"/>
<path d="" fill="#0BBFDE" transform="translate(0,0)"/>
<path d="" fill="#0BBFDE" transform="translate(0,0)"/>
<path d="" fill="#0BBFDE" transform="translate(0,0)"/>
<path d="" fill="#0BBFDE" transform="translate(0,0)"/>
<path d="" fill="#0ABFDE" transform="translate(0,0)"/>
<path d="" fill="#0BC0DE" transform="translate(0,0)"/>
<path d="" fill="#0BBFDF" transform="translate(0,0)"/>
<path d="" fill="#0BC0DD" transform="translate(0,0)"/>
<path d="" fill="#0BBEDE" transform="translate(0,0)"/>
<path d="" fill="#0BBEDE" transform="translate(0,0)"/>
<path d="" fill="#0EBCDC" transform="translate(0,0)"/>
<path d="" fill="#0BBFDE" transform="translate(0,0)"/>
<path d="" fill="#0CBEDE" transform="translate(0,0)"/>
<path d="" fill="#0CBFDE" transform="translate(0,0)"/>
<path d="" fill="#0BBFDE" transform="translate(0,0)"/>
<path d="" fill="#0BBEDD" transform="translate(0,0)"/>
<path d="" fill="#0DBFDD" transform="translate(0,0)"/>
<path d="M0 0 C2 1 2 1 2 1 Z " fill="#0DBEDC" transform="translate(228,33)"/>
<path d="M0 0 C2 1 2 1 2 1 Z " fill="#0BBEDE" transform="translate(48,29)"/>
<path d="M0 0 C2 1 2 1 2 1 Z " fill="#0BBFDE" transform="translate(221,27)"/>
<path d="M0 0 C2 1 2 1 2 1 Z " fill="#0BBFDD" transform="translate(217,24)"/>
<path d="M0 0 C2 1 2 1 2 1 Z " fill="#0CBDDE" transform="translate(56,23)"/>
<path d="M0 0 C2 1 2 1 2 1 Z " fill="#0CBDDA" transform="translate(214,22)"/>
<path d="M0 0 C2 1 2 1 2 1 Z " fill="#0CBEDE" transform="translate(208,18)"/>
<path d="M0 0 C2 1 2 1 2 1 Z " fill="#0CBFDE" transform="translate(65,17)"/>
<path d="M0 0 C2 1 2 1 2 1 Z " fill="#0ABFDE" transform="translate(205,16)"/>
<path d="M0 0 C2 1 2 1 2 1 Z " fill="#0BBFDD" transform="translate(203,15)"/>
<path d="M0 0 C2 1 2 1 2 1 Z " fill="#0BC0DE" transform="translate(201,14)"/>
<path d="M0 0 C2 1 2 1 2 1 Z " fill="#0ABFDE" transform="translate(72,13)"/>
<path d="M0 0 C2 1 2 1 2 1 Z " fill="#0BBFDE" transform="translate(74,12)"/>
<path d="M0 0 C2 1 2 1 2 1 Z " fill="#0CBFDE" transform="translate(195,11)"/>
<path d="M0 0 C2 1 2 1 2 1 Z " fill="#0BBFDE" transform="translate(76,11)"/>
<path d="M0 0 C2 1 2 1 2 1 Z " fill="#0BBFDE" transform="translate(193,10)"/>
<path d="M0 0 C2 1 2 1 2 1 Z " fill="#0ABFDF" transform="translate(78,10)"/>
<path d="M0 0 C2 1 2 1 2 1 Z " fill="#0BBEDE" transform="translate(191,9)"/>
<path d="M0 0 C2 1 2 1 2 1 Z " fill="#0BBFDE" transform="translate(189,8)"/>
<path d="M0 0 C2 1 2 1 2 1 Z " fill="#0CBFDD" transform="translate(83,8)"/>
<path d="M0 0 C2 1 2 1 2 1 Z " fill="#0BC0DE" transform="translate(186,7)"/>
<path d="M0 0 C2 1 2 1 2 1 Z " fill="#0ABFDE" transform="translate(85,7)"/>
<path d="M0 0 C2 1 2 1 2 1 Z " fill="#0BBFDE" transform="translate(88,6)"/>
<path d="M0 0 C2 1 2 1 2 1 Z " fill="#0AC0DE" transform="translate(181,5)"/>
<path d="M0 0 C2 1 2 1 2 1 Z " fill="#0CBFDD" transform="translate(178,4)"/>
<path d="M0 0 C2 1 2 1 2 1 Z " fill="#0BBFDE" transform="translate(175,3)"/>
<path d="M0 0 C2 1 2 1 2 1 Z " fill="#0BBFDE" transform="translate(97,3)"/>
<path d="" fill="#0CBFDE" transform="translate(0,0)"/>
<path d="" fill="#0CBFDE" transform="translate(0,0)"/>
<path d="" fill="#0CBFDE" transform="translate(0,0)"/>
<path d="" fill="#0ABFDE" transform="translate(0,0)"/>
<path d="" fill="#0BBFDE" transform="translate(0,0)"/>
<path d="" fill="#0BBFDE" transform="translate(0,0)"/>
<path d="" fill="#0BBFDE" transform="translate(0,0)"/>
<path d="" fill="#0BBFDF" transform="translate(0,0)"/>
<path d="" fill="#0BC0DE" transform="translate(0,0)"/>
<path d="" fill="#0BBEDE" transform="translate(0,0)"/>
<path d="" fill="#0BBFDE" transform="translate(0,0)"/>
<path d="" fill="#0CBFDD" transform="translate(0,0)"/>
<path d="" fill="#0BBFDE" transform="translate(0,0)"/>
<path d="" fill="#0ABFDF" transform="translate(0,0)"/>
<path d="" fill="#0CBFDE" transform="translate(0,0)"/>
<path d="" fill="#0BBFDE" transform="translate(0,0)"/>
<path d="" fill="#0AC0DE" transform="translate(0,0)"/>
<path d="" fill="#0CBFDD" transform="translate(0,0)"/>
<path d="" fill="#0BBFDE" transform="translate(0,0)"/>
<path d="" fill="#0BBFDF" transform="translate(0,0)"/>
<path d="" fill="#0DC0DE" transform="translate(0,0)"/>
<path d="" fill="#0BBFDF" transform="translate(0,0)"/>
<path d="" fill="#0ABFDE" transform="translate(0,0)"/>
<path d="" fill="#0CBFDF" transform="translate(0,0)"/>
<path d="" fill="#0AC0DF" transform="translate(0,0)"/>
<path d="" fill="#0DBEDE" transform="translate(0,0)"/>
<path d="" fill="#0BBFDE" transform="translate(0,0)"/>
<path d="" fill="#0CBEDD" transform="translate(0,0)"/>
<path d="" fill="#0BC0DE" transform="translate(0,0)"/>
<path d="" fill="#0CBDDD" transform="translate(0,0)"/>
<path d="" fill="#0BC0DE" transform="translate(0,0)"/>
<path d="" fill="#0BBFDE" transform="translate(0,0)"/>
<path d="" fill="#0ABFDE" transform="translate(0,0)"/>
<path d="" fill="#0CBEDD" transform="translate(0,0)"/>
<path d="" fill="#0ABFDF" transform="translate(0,0)"/>
<path d="" fill="#0CBDDE" transform="translate(0,0)"/>
<path d="" fill="#0AC0DE" transform="translate(0,0)"/>
<path d="" fill="#0CBEDE" transform="translate(0,0)"/>
<path d="" fill="#0BBFDE" transform="translate(0,0)"/>
<path d="" fill="#0CBEDF" transform="translate(0,0)"/>
<path d="" fill="#0ABFDF" transform="translate(0,0)"/>
<path d="" fill="#0DBFDE" transform="translate(0,0)"/>
<path d="" fill="#0ABFDE" transform="translate(0,0)"/>
<path d="" fill="#0EC0DE" transform="translate(0,0)"/>
<path d="" fill="#0BC0DE" transform="translate(0,0)"/>
<path d="" fill="#0CBFDE" transform="translate(0,0)"/>
<path d="" fill="#0BBFDE" transform="translate(0,0)"/>
<path d="" fill="#0CBFDE" transform="translate(0,0)"/>
<path d="" fill="#0AC0DE" transform="translate(0,0)"/>
<path d="" fill="#0CBFDE" transform="translate(0,0)"/>
<path d="" fill="#0ABFDF" transform="translate(0,0)"/>
<path d="" fill="#0BC0DE" transform="translate(0,0)"/>
<path d="" fill="#0AC0DE" transform="translate(0,0)"/>
<path d="" fill="#0BBFDE" transform="translate(0,0)"/>
<path d="" fill="#0AC0DE" transform="translate(0,0)"/>
<path d="" fill="#0DBFDD" transform="translate(0,0)"/>
<path d="" fill="#0CBFDD" transform="translate(0,0)"/>
<path d="" fill="#0DBFDE" transform="translate(0,0)"/>
<path d="" fill="#0BBFDF" transform="translate(0,0)"/>
<path d="" fill="#0CBFDE" transform="translate(0,0)"/>
<path d="" fill="#0BBFDE" transform="translate(0,0)"/>
<path d="" fill="#0BBFDE" transform="translate(0,0)"/>
<path d="" fill="#0BBFDE" transform="translate(0,0)"/>
<path d="" fill="#0BBFDE" transform="translate(0,0)"/>
<path d="" fill="#0BBFDF" transform="translate(0,0)"/>
<path d="" fill="#0BC0DE" transform="translate(0,0)"/>
<path d="" fill="#0ABFDF" transform="translate(0,0)"/>
<path d="" fill="#0BBFDE" transform="translate(0,0)"/>
<path d="" fill="#0CBFDF" transform="translate(0,0)"/>
<path d="" fill="#0ABFDF" transform="translate(0,0)"/>
<path d="" fill="#0ABFDF" transform="translate(0,0)"/>
<path d="" fill="#0CBFDE" transform="translate(0,0)"/>
<path d="" fill="#0CBFDF" transform="translate(0,0)"/>
<path d="" fill="#0BBFDF" transform="translate(0,0)"/>
<path d="" fill="#0ABFDF" transform="translate(0,0)"/>
<path d="" fill="#0CBFDE" transform="translate(0,0)"/>
<path d="" fill="#0CBFDE" transform="translate(0,0)"/>
<path d="" fill="#0BBFDE" transform="translate(0,0)"/>
<path d="" fill="#0BBFDE" transform="translate(0,0)"/>
<path d="" fill="#0CBFDE" transform="translate(0,0)"/>
<path d="" fill="#0BBFDE" transform="translate(0,0)"/>
<path d="" fill="#0BBFDE" transform="translate(0,0)"/>
<path d="" fill="#0BBFDF" transform="translate(0,0)"/>
<path d="" fill="#0BBEDE" transform="translate(0,0)"/>
<path d="" fill="#0BBFDE" transform="translate(0,0)"/>
<path d="" fill="#0BBFDF" transform="translate(0,0)"/>
<path d="" fill="#0BBFDF" transform="translate(0,0)"/>
<path d="" fill="#0BBEDE" transform="translate(0,0)"/>
<path d="" fill="#0CBFDD" transform="translate(0,0)"/>
<path d="" fill="#0BBFDE" transform="translate(0,0)"/>
<path d="" fill="#0ABFDF" transform="translate(0,0)"/>
<path d="" fill="#0BBEDE" transform="translate(0,0)"/>
<path d="" fill="#0BBFDE" transform="translate(0,0)"/>
<path d="" fill="#0BBEDF" transform="translate(0,0)"/>
<path d="" fill="#0ABFDF" transform="translate(0,0)"/>
<path d="" fill="#0CBFDE" transform="translate(0,0)"/>
<path d="" fill="#0BBFDE" transform="translate(0,0)"/>
<path d="" fill="#0BBFDE" transform="translate(0,0)"/>
<path d="" fill="#0BBEDE" transform="translate(0,0)"/>
<path d="" fill="#0BBFDE" transform="translate(0,0)"/>
<path d="" fill="#0BBFDD" transform="translate(0,0)"/>
<path d="" fill="#0CBFDE" transform="translate(0,0)"/>
<path d="" fill="#0BBFDE" transform="translate(0,0)"/>
<path d="" fill="#0DBFDE" transform="translate(0,0)"/>
<path d="" fill="#0CBFDE" transform="translate(0,0)"/>
<path d="" fill="#0CBFDE" transform="translate(0,0)"/>
<path d="" fill="#0BBFDE" transform="translate(0,0)"/>
<path d="" fill="#0DBFDD" transform="translate(0,0)"/>
<path d="" fill="#0BC0DE" transform="translate(0,0)"/>
<path d="" fill="#0AC0DF" transform="translate(0,0)"/>
<path d="" fill="#0CBFDD" transform="translate(0,0)"/>
<path d="" fill="#0BBFDE" transform="translate(0,0)"/>
<path d="" fill="#0DBFDD" transform="translate(0,0)"/>
<path d="" fill="#0BC0DF" transform="translate(0,0)"/>
<path d="" fill="#0CBFDD" transform="translate(0,0)"/>
<path d="" fill="#0BC0DE" transform="translate(0,0)"/>
<path d="" fill="#0CBEDD" transform="translate(0,0)"/>
<path d="" fill="#0BC0DE" transform="translate(0,0)"/>
<path d="" fill="#0DBFDE" transform="translate(0,0)"/>
<path d="" fill="#0ABFDE" transform="translate(0,0)"/>
<path d="" fill="#0CBFDF" transform="translate(0,0)"/>
<path d="" fill="#0AC0DE" transform="translate(0,0)"/>
<path d="" fill="#0DBEDF" transform="translate(0,0)"/>
<path d="" fill="#0BC0DE" transform="translate(0,0)"/>
<path d="" fill="#0CBFDD" transform="translate(0,0)"/>
<path d="" fill="#0BC0DE" transform="translate(0,0)"/>
<path d="" fill="#0CBFDD" transform="translate(0,0)"/>
<path d="" fill="#0AC0DE" transform="translate(0,0)"/>
<path d="" fill="#0BBEDE" transform="translate(0,0)"/>
<path d="" fill="#0BC0DE" transform="translate(0,0)"/>
<path d="" fill="#0BBEDD" transform="translate(0,0)"/>
<path d="" fill="#0CBFDD" transform="translate(0,0)"/>
<path d="" fill="#0DBFDE" transform="translate(0,0)"/>
<path d="" fill="#0BC0DE" transform="translate(0,0)"/>
<path d="" fill="#0CBFDD" transform="translate(0,0)"/>
<path d="" fill="#0BBFDE" transform="translate(0,0)"/>
<path d="" fill="#0CBFDE" transform="translate(0,0)"/>
<path d="" fill="#0BC0DE" transform="translate(0,0)"/>
<path d="" fill="#0BBFDF" transform="translate(0,0)"/>
<path d="" fill="#0ABFDF" transform="translate(0,0)"/>
<path d="" fill="#0CBFDF" transform="translate(0,0)"/>
<path d="" fill="#0BBFDF" transform="translate(0,0)"/>
<path d="" fill="#0CBFDD" transform="translate(0,0)"/>
<path d="" fill="#0BBFDF" transform="translate(0,0)"/>
<path d="" fill="#0AC0DE" transform="translate(0,0)"/>
<path d="" fill="#0CBFDD" transform="translate(0,0)"/>
<path d="" fill="#0BBFDE" transform="translate(0,0)"/>
<path d="" fill="#0BBFDD" transform="translate(0,0)"/>
<path d="" fill="#0BBEDF" transform="translate(0,0)"/>
<path d="" fill="#0BBFDE" transform="translate(0,0)"/>
<path d="" fill="#0BBFDF" transform="translate(0,0)"/>
<path d="" fill="#0ABFDF" transform="translate(0,0)"/>
<path d="" fill="#0BBFDF" transform="translate(0,0)"/>
<path d="" fill="#0CBDDE" transform="translate(0,0)"/>
<path d="" fill="#0BBFDF" transform="translate(0,0)"/>
<path d="" fill="#0BC0DE" transform="translate(0,0)"/>
<path d="" fill="#0BBEDF" transform="translate(0,0)"/>
<path d="" fill="#0BBFDF" transform="translate(0,0)"/>
<path d="" fill="#0CBFDE" transform="translate(0,0)"/>
<path d="" fill="#0BC0DE" transform="translate(0,0)"/>
<path d="" fill="#0BC0DE" transform="translate(0,0)"/>
<path d="" fill="#0BBFDE" transform="translate(0,0)"/>
<path d="" fill="#0CBFDE" transform="translate(0,0)"/>
</svg>
