<?xml version="1.0" encoding="UTF-8"?>
<svg version="1.1" xmlns="http://www.w3.org/2000/svg" width="1000" height="1000">
<path d="M0 0 C330 0 660 0 1000 0 C1000 330 1000 660 1000 1000 C670 1000 340 1000 0 1000 C0 670 0 340 0 0 Z " fill="#F6C14C" transform="translate(0,0)"/>
<path d="M0 0 C330 0 660 0 1000 0 C1000 45.54 1000 91.08 1000 138 C670 138 340 138 0 138 C0 92.46 0 46.92 0 0 Z " fill="#010100" transform="translate(0,862)"/>
<path d="M0 0 C0.33 0 0.66 0 1 0 C1.1959375 1.0415625 1.391875 2.083125 1.59375 3.15625 C5.08150781 20.36630044 12.04001678 34.37716713 24.76953125 46.67578125 C27 49 27 49 27 51 C27.57435791 51.25386475 28.14871582 51.50772949 28.74047852 51.76928711 C31.25859409 53.14085065 33.05884121 54.73473394 35.15234375 56.69140625 C39.71813252 60.82626664 44.50265301 64.43283976 49.5625 67.9375 C50.43600098 68.5444873 51.30950195 69.15147461 52.20947266 69.77685547 C59.18558164 74.56203619 66.319949 78.83226797 73.78027344 82.80908203 C76.30506708 84.16367325 78.81287125 85.54715244 81.3203125 86.93359375 C93.88896329 93.8700507 106.55834303 100.46773487 119.5234375 106.62890625 C157.89750377 124.87363598 196.68562761 143.7351223 228 173 C228.89847656 173.83273437 229.79695312 174.66546875 230.72265625 175.5234375 C249.98885862 194.00381727 262.9715497 218.97749099 263.54762268 245.97450256 C263.56944327 248.08750149 263.56978579 250.19940965 263.5625 252.3125 C263.56367828 253.04457672 263.56485657 253.77665344 263.56607056 254.53091431 C263.53464324 270.96115873 260.91894308 286.97779026 254 302 C253.67 302 253.34 302 253 302 C252.88785156 300.72382812 252.88785156 300.72382812 252.7734375 299.421875 C250.88509486 282.01950166 245.46881575 266.26420367 237 251 C236.43410156 249.94425781 235.86820313 248.88851562 235.28515625 247.80078125 C228.26254455 235.16008019 218.9528807 224.39273051 209 214 C208.52836426 213.50113281 208.05672852 213.00226563 207.57080078 212.48828125 C200.47890729 205.01453504 192.93921155 198.51659851 184.72167969 192.31152344 C183.07046684 191.0536795 181.44262437 189.77137964 179.8203125 188.4765625 C166.6991572 178.10397839 152.41547636 169.44056046 138 161 C137.09701172 160.46922852 136.19402344 159.93845703 135.26367188 159.39160156 C122.86321464 152.11693593 110.38229918 145.0568771 97.6875 138.3125 C85.99095112 132.09761253 74.41737235 125.71500263 63 119 C62.21979492 118.54173828 61.43958984 118.08347656 60.63574219 117.61132812 C33.74843755 101.72900741 2.0419296 82.11156308 -8.0390625 50.76953125 C-12.4963323 33.33619096 -8.7515943 16.93543364 -1 1 C-0.67 0.67 -0.34 0.34 0 0 Z " fill="#2E2E2D" transform="translate(393,257)"/>
<path d="M0 0 C0.33 0 0.66 0 1 0 C1.17015625 1.29292969 1.3403125 2.58585937 1.515625 3.91796875 C7.31760242 46.27934507 32.59335838 82.55392082 66.33203125 108.24609375 C67.55370494 109.16536973 68.77636883 110.0833312 70 111 C70.6089209 111.45906738 71.2178418 111.91813477 71.84521484 112.39111328 C93.01659954 128.31007649 115.64036056 141.61797631 138.65966797 154.66748047 C140.75971553 155.86318875 142.85251068 157.07010361 144.94140625 158.28515625 C150.33862959 161.41926598 155.754719 164.40594448 161.375 167.125 C172.24843498 172.47619609 182.59073554 178.80862893 193 185 C193.84739746 185.50112305 194.69479492 186.00224609 195.56787109 186.51855469 C211.55013386 195.98928247 226.66312415 205.99901584 240 219 C240.79792969 219.72445312 241.59585938 220.44890625 242.41796875 221.1953125 C254.37688465 232.35147845 262.9288107 247.19061412 263.53613281 263.70556641 C263.6701318 277.58935038 260.977485 289.84659375 254 302 C252.30004467 298.94293747 251.55325843 296.16995097 250.875 292.75 C247.37808683 278.519987 239.47312067 266.93714842 230 256 C229.41734375 255.32710937 228.8346875 254.65421875 228.234375 253.9609375 C210.72684908 235.30392756 185.88322895 222.42217873 163.5 210.625 C162.43348709 210.06039062 162.43348709 210.06039062 161.34542847 209.484375 C147.65488976 202.24698618 133.77609664 195.41438065 119.8125 188.72119141 C76.44217112 167.89892034 28.45920188 143.70891063 3 101 C2.13181641 99.55753906 2.13181641 99.55753906 1.24609375 98.0859375 C-10.88341721 76.98849236 -13.4708292 49.4983162 -7.52246094 26.06347656 C-6.90866474 23.63926839 -6.33394297 21.20686529 -5.7578125 18.7734375 C-4.91192456 15.25866504 -4.06473167 11.74439616 -3.18359375 8.23828125 C-3.00368896 7.51680908 -2.82378418 6.79533691 -2.63842773 6.05200195 C-1.9661933 3.89134023 -1.06391503 1.99347327 0 0 Z " fill="#2E2E2D" transform="translate(353,316)"/>
<path d="M0 0 C0.66 0 1.32 0 2 0 C2.12004395 0.64324219 2.24008789 1.28648437 2.36376953 1.94921875 C7.11698493 27.02544826 14.54221861 49.0305264 31 69 C31.47373047 69.57911133 31.94746094 70.15822266 32.43554688 70.75488281 C38.17625639 77.74052097 43.90216773 84.35564874 51 90 C52.07653235 90.89722523 53.1519471 91.79579221 54.2265625 92.6953125 C74.69784027 109.65667606 98.17866161 122.14074902 121.7265625 134.265625 C124.78578269 135.84227507 127.82813032 137.43674076 130.8359375 139.109375 C138.64467484 143.43366433 146.63499343 147.10656809 154.8125 150.6875 C174.8942758 159.49873431 194.68193657 168.87455787 213 181 C213.73041504 181.4832373 214.46083008 181.96647461 215.21337891 182.46435547 C226.93564621 190.30386089 237.06696234 198.98749803 247 209 C247.71800781 209.72058594 248.43601562 210.44117188 249.17578125 211.18359375 C261.66859353 224.3615694 269.43106326 240.90740491 269.28515625 259.25 C268.54786694 268.94585941 265.90841247 278.58557863 261 287 C260.67 287 260.34 287 260 287 C259.78085937 285.98421875 259.56171875 284.9684375 259.3359375 283.921875 C256.26578375 270.3316372 251.38793921 259.50058386 242 249 C241.34515625 248.26265625 240.6903125 247.5253125 240.015625 246.765625 C214.25748287 219.45812094 174.81665448 204.95845126 141.22447205 189.8132782 C59.75253601 153.05361474 59.75253601 153.05361474 29 123 C27.9171875 122.01 27.9171875 122.01 26.8125 121 C4.75299746 100.36369117 -5.33397505 72.01129241 -6.38378906 42.38110352 C-6.66137639 28.13708827 -4.51547109 13.54641326 0 0 Z " fill="#2D2D2C" transform="translate(331,369)"/>
<path d="M0 0 C0.33 0 0.66 0 1 0 C1.25523437 1.34191406 1.25523437 1.34191406 1.515625 2.7109375 C4.10087952 15.60970741 7.73087896 24.70427863 16 35 C16.66902344 35.8353125 17.33804687 36.670625 18.02734375 37.53125 C41.27236595 64.88852008 80.23222383 80.25398718 112.48681641 94.35229492 C197.23959622 131.46507804 197.23959622 131.46507804 229 162 C229.47920898 162.45342773 229.95841797 162.90685547 230.45214844 163.37402344 C237.49931679 170.06369434 243.57813687 176.89077862 249 185 C249.59296875 185.825 250.1859375 186.65 250.796875 187.5 C261.86893982 203.56919142 266.13244735 222.75117548 267 242 C267.061875 243.28003906 267.061875 243.28003906 267.125 244.5859375 C267.47978322 259.35378884 264.43865085 273.72792971 261 288 C260.34 288 259.68 288 259 288 C258.79246094 286.78828125 258.58492187 285.5765625 258.37109375 284.328125 C250.86050671 242.622722 228.90470619 209.60877353 194.36987305 185.19995117 C175.78410681 172.35821489 156.04084682 161.68842018 135.91699219 151.48193359 C133.54505691 150.27690789 131.18043126 149.05993896 128.8203125 147.83203125 C122.60605466 144.62723063 116.30298307 141.66935597 109.9140625 138.828125 C94.21844127 131.84653932 78.86145045 124.66695865 64 116 C63.19256348 115.52965332 62.38512695 115.05930664 61.55322266 114.57470703 C33.58130032 98.1476527 2.50362644 77.33980908 -6.3125 44.25 C-10.10044077 28.59121866 -7.88342582 14.0775461 0 0 Z " fill="#2D2D2C" transform="translate(408,219)"/>
<path d="M0 0 C6.64304302 7.67090641 7.76252702 20.44294032 7.4375 30.18359375 C5.08109738 50.73899872 -6.69170765 65.89658969 -21 80 C-21.89460937 80.89332031 -22.78921875 81.78664063 -23.7109375 82.70703125 C-43.90906284 101.94186138 -69.47911812 116.11086903 -94 129 C-95.08104004 129.57331055 -96.16208008 130.14662109 -97.27587891 130.73730469 C-125.21801514 145.53745142 -153.79167837 158.88883573 -183 171 C-183.8763208 171.37729248 -184.7526416 171.75458496 -185.65551758 172.14331055 C-188 173 -188 173 -191 173 C-202.62585221 151.44138085 -202.62585221 151.44138085 -200 141 C-196.85091428 136.82806547 -192.66336452 135.29037713 -188 133.3125 C-171.1465794 126.09331937 -154.52570456 118.44325779 -138.0625 110.375 C-137.18046906 109.94346619 -136.29843811 109.51193237 -135.38967896 109.06732178 C-98.78541072 91.14630644 -61.74935172 72.90292379 -30 47 C-29.12456543 46.29278809 -29.12456543 46.29278809 -28.23144531 45.57128906 C-13.86257999 33.90465092 -2.32373213 21.8175942 -0.2265625 2.67578125 C-0.15179687 1.79277344 -0.07703125 0.90976563 0 0 Z " fill="#2B2A29" transform="translate(617,72)"/>
<path d="M0 0 C6.79713364 6.33435008 10.1461475 14.8242716 11 24 C11.0532192 27.33421499 11.04006016 30.66569999 11 34 C10.17838379 34.37060547 9.35676758 34.74121094 8.51025391 35.12304688 C-48.96709287 60.9805365 -48.96709287 60.9805365 -104.5546875 90.60253906 C-106.69817368 91.8275106 -108.85447408 93.01528864 -111.03125 94.1796875 C-119.94237645 98.9672884 -128.38666383 104.41474607 -136.8125 110 C-137.38504517 110.37732269 -137.95759033 110.75464539 -138.54748535 111.1434021 C-150.18754207 118.83425836 -160.77069253 127.52516975 -171 137 C-171.63808594 137.57234375 -172.27617187 138.1446875 -172.93359375 138.734375 C-183.35014682 148.47814402 -188.33080707 159.94694855 -189 174 C-195.0253607 167.9746393 -196.36442164 155.15386132 -196.625 146.9375 C-195.77423447 124.23549348 -181.98151502 106.12407172 -166 91.0625 C-139.02519901 66.43865761 -105.28439941 49.42366788 -73 33 C-71.93749023 32.45778809 -70.87498047 31.91557617 -69.78027344 31.35693359 C-57.09210333 24.89415658 -44.31829048 18.71753311 -31.27685547 12.99951172 C-29.06768688 12.02971371 -26.8634347 11.04950033 -24.66015625 10.06640625 C-16.52879091 6.45310235 -8.34337484 3.10019236 0 0 Z " fill="#2A2A29" transform="translate(572,630)"/>
<path d="M0 0 C3.04296875 1.56640625 3.04296875 1.56640625 6.1875 3.5625 C7.02680054 4.09387573 7.02680054 4.09387573 7.88305664 4.63598633 C15.57077134 9.56216866 23.26722399 14.81312475 30 21 C30 21.66 30 22.32 30 23 C29.443125 23.17015625 28.88625 23.3403125 28.3125 23.515625 C23.61658257 25.00689608 19.31759322 26.75841594 14.953125 29.03515625 C13.05748199 29.97160389 11.17585318 30.72217782 9.1875 31.4375 C6.0610886 32.5623825 3.05117595 33.84920235 0.03125 35.234375 C-0.93852783 35.67837646 -1.90830566 36.12237793 -2.9074707 36.57983398 C-3.92800537 37.04848877 -4.94854004 37.51714355 -6 38 C-7.01344482 38.462854 -8.02688965 38.92570801 -9.07104492 39.40258789 C-27.60219017 47.86159568 -27.60219017 47.86159568 -45.85595703 56.89697266 C-47.41732582 57.70023663 -48.98113944 58.49875372 -50.54638672 59.29443359 C-69.2893905 68.82662767 -87.73378417 78.95908633 -105 91 C-106.32267509 91.89879311 -107.64561182 92.79720126 -108.96875 93.6953125 C-118.90711665 100.50363624 -128.14629784 107.83140574 -137 116 C-137.54527344 116.49999512 -138.09054687 116.99999023 -138.65234375 117.51513672 C-153.80094824 131.55722639 -164.15716487 147.40375204 -168 168 C-170 167 -170 167 -171.25390625 163.54296875 C-171.69794058 162.09352337 -172.13379011 160.64155166 -172.5625 159.1875 C-172.78357422 158.46240234 -173.00464844 157.73730469 -173.23242188 156.99023438 C-178.35820733 140.06430234 -176.8920925 124.45256338 -168.9375 108.5625 C-160.19320788 93.07742594 -147.86830811 80.93498457 -134 70 C-133.04738281 69.23042969 -132.09476562 68.46085938 -131.11328125 67.66796875 C-115.44004025 55.24577134 -98.25986095 45.18079626 -80.78125 35.5390625 C-78.1479761 34.08188565 -75.52579475 32.60668 -72.90625 31.125 C-57.20981906 22.29459202 -41.02008751 14.43577278 -24.45458984 7.36816406 C-21.37694241 6.05505603 -18.33941844 4.69602632 -15.34375 3.20703125 C-13.62671875 2.36205078 -13.62671875 2.36205078 -11.875 1.5 C-10.88242187 0.9946875 -9.88984375 0.489375 -8.8671875 -0.03125 C-5.34897576 -1.21996459 -3.55365241 -1.03437489 0 0 Z " fill="#272625" transform="translate(537,601)"/>
<path d="M0 0 C2.62495644 3.12744811 3.88348451 6.06142999 5.125 9.9375 C5.62386719 11.46697266 5.62386719 11.46697266 6.1328125 13.02734375 C11.12928308 30.15488479 7.11643042 47.42778377 -1.0859375 62.8203125 C-3.97405016 67.61811598 -7.29297172 71.81486901 -11 76 C-11.69996094 76.81984375 -12.39992188 77.6396875 -13.12109375 78.484375 C-46.84875769 117.20204983 -99.44563691 141.27379849 -145.47467041 162.15969849 C-147.06511698 162.8821269 -148.65317797 163.60983221 -150.2387085 164.34298706 C-152.44029891 165.35684279 -154.65128046 166.34603016 -156.8671875 167.328125 C-157.51768066 167.631241 -158.16817383 167.93435699 -158.83837891 168.24665833 C-161.82240964 169.53635021 -163.53235992 170.12116244 -166.72509766 169.29394531 C-167.47581543 168.86694336 -168.2265332 168.43994141 -169 168 C-169.60392578 167.67451172 -170.20785156 167.34902344 -170.83007812 167.01367188 C-172.72491883 165.84979154 -174.61720521 164.68331569 -176.5 163.5 C-177.54317383 162.84547852 -177.54317383 162.84547852 -178.60742188 162.17773438 C-183.38170547 159.13559742 -187.99626599 155.9297277 -192.5 152.5 C-193.05751953 152.07912109 -193.61503906 151.65824219 -194.18945312 151.22460938 C-195.50126518 150.20096038 -196.75729276 149.10652015 -198 148 C-198 147.34 -198 146.68 -198 146 C-196.90171875 145.5359375 -195.8034375 145.071875 -194.671875 144.59375 C-183.42201669 139.81722735 -172.2228504 134.92723786 -161.04675293 129.98095703 C-159.49777906 129.29587251 -157.94823568 128.61207391 -156.39807129 127.9296875 C-146.4071107 123.52896525 -136.57025857 118.90480914 -126.84597778 113.94186401 C-125.09026221 113.04605403 -123.33122696 112.15675915 -121.57202148 111.26782227 C-90.4398403 95.50283744 -56.04337081 77.81788975 -31.4375 52.4375 C-30.633125 51.633125 -29.82875 50.82875 -29 50 C-28.34 50 -27.68 50 -27 50 C-26.731875 49.39800781 -26.46375 48.79601562 -26.1875 48.17578125 C-24.97843581 45.96048929 -23.88414961 44.8316017 -22 43.1875 C-10.01125212 31.49972487 -3.51182711 16.10301213 0 0 Z " fill="#272625" transform="translate(631,106)"/>
<path d="M0 0 C2.97 0 5.94 0 9 0 C9 1.32 9 2.64 9 4 C8.67 4.33 8.34 4.66 8 5 C8.00594932 7.69206596 8.05503529 10.37209015 8.125 13.0625 C8.15098948 14.63526716 8.16550712 16.20827005 8.16796875 17.78125 C8.1733667 18.49087891 8.17876465 19.20050781 8.18432617 19.93164062 C7.92342799 22.85922922 6.8408454 25.20491983 5.6015625 27.83984375 C4.56007052 31.57974678 5.15237411 35.30737261 5.48974609 39.13696289 C6.03037821 45.43250063 6.09259062 51.6830093 6.0625 58 C6.05839111 58.98629395 6.05428223 59.97258789 6.05004883 60.98876953 C6.03744359 63.32590438 6.02100521 65.66292779 6 68 C1.66463974 69.44512009 -2.75106217 69.39022195 -7.28320312 69.60546875 C-11.27142972 69.74031487 -11.27142972 69.74031487 -15 71 C-16.19660556 74.58981669 -16.19092956 77.88721215 -16.1875 81.625 C-16.18814453 82.34486084 -16.18878906 83.06472168 -16.18945312 83.80639648 C-16.14357771 88.43199404 -15.66783584 92.61690398 -14.4453125 97.09375 C-13.74334918 100.09864563 -13.86928714 102.92824782 -14 106 C-15.98 106.99 -15.98 106.99 -18 108 C-20 105 -20 105 -19.64477539 102.73950195 C-19.43199951 101.83546631 -19.21922363 100.93143066 -19 100 C-18.85536047 97.72480822 -18.75386208 95.44667026 -18.68359375 93.16796875 C-18.64169922 91.87568359 -18.59980469 90.58339844 -18.55664062 89.25195312 C-18.51683648 87.89713808 -18.47712409 86.54232033 -18.4375 85.1875 C-18.39426277 83.81313895 -18.35064688 82.43878976 -18.30664062 81.06445312 C-18.2007021 77.70973331 -18.09862811 74.3549414 -18 71 C-18.92167969 70.86851562 -19.84335937 70.73703125 -20.79296875 70.6015625 C-24.79083722 69.85165782 -26.9512361 68.69425647 -30 66 C-30.6875 62.5625 -30.6875 62.5625 -31 59 C-31.515625 58.175 -32.03125 57.35 -32.5625 56.5 C-34.53022005 53.07787818 -34.30305728 50.93176942 -34 47 C-33.12817953 44.17603716 -31.94279334 41.5472341 -30.6875 38.875 C-30.37876953 38.18535156 -30.07003906 37.49570312 -29.75195312 36.78515625 C-24.87581345 26.04738341 -24.87581345 26.04738341 -20 23 C-17.20251159 22.06750386 -15.45679119 21.86523848 -12.5625 21.875 C-11.80066406 21.87242187 -11.03882813 21.86984375 -10.25390625 21.8671875 C-8.04684141 21.99723985 -6.12030724 22.39143801 -4 23 C-4.04640625 22.42894531 -4.0928125 21.85789062 -4.140625 21.26953125 C-4.48179751 13.60533452 -2.52334994 7.18704134 0 0 Z " fill="#F7B756" transform="translate(875,879)"/>
<path d="M0 0 C2.97 0 5.94 0 9 0 C9 1.32 9 2.64 9 4 C8.67 4.33 8.34 4.66 8 5 C8.00594932 7.69206596 8.05503529 10.37209015 8.125 13.0625 C8.15098948 14.63526716 8.16550712 16.20827005 8.16796875 17.78125 C8.1733667 18.49087891 8.17876465 19.20050781 8.18432617 19.93164062 C7.92342799 22.85922922 6.8408454 25.20491983 5.6015625 27.83984375 C4.56007052 31.57974678 5.15237411 35.30737261 5.48974609 39.13696289 C6.03037821 45.43250063 6.09259062 51.6830093 6.0625 58 C6.05839111 58.98629395 6.05428223 59.97258789 6.05004883 60.98876953 C6.03744359 63.32590438 6.02100521 65.66292779 6 68 C1.66463974 69.44512009 -2.75106217 69.39022195 -7.28320312 69.60546875 C-11.27142972 69.74031487 -11.27142972 69.74031487 -15 71 C-16.19660556 74.58981669 -16.19092956 77.88721215 -16.1875 81.625 C-16.18814453 82.34486084 -16.18878906 83.06472168 -16.18945312 83.80639648 C-16.14357771 88.43199404 -15.66783584 92.61690398 -14.4453125 97.09375 C-13.74334918 100.09864563 -13.86928714 102.92824782 -14 106 C-15.98 106.99 -15.98 106.99 -18 108 C-20 105 -20 105 -19.64477539 102.73950195 C-19.43199951 101.83546631 -19.21922363 100.93143066 -19 100 C-18.85536047 97.72480822 -18.75386208 95.44667026 -18.68359375 93.16796875 C-18.64169922 91.87568359 -18.59980469 90.58339844 -18.55664062 89.25195312 C-18.51683648 87.89713808 -18.47712409 86.54232033 -18.4375 85.1875 C-18.39426277 83.81313895 -18.35064688 82.43878976 -18.30664062 81.06445312 C-18.2007021 77.70973331 -18.09862811 74.3549414 -18 71 C-18.92167969 70.86851562 -19.84335937 70.73703125 -20.79296875 70.6015625 C-24.79083722 69.85165782 -26.9512361 68.69425647 -30 66 C-30.6875 62.5625 -30.6875 62.5625 -31 59 C-31.515625 58.175 -32.03125 57.35 -32.5625 56.5 C-34.53022005 53.07787818 -34.30305728 50.93176942 -34 47 C-33.12817953 44.17603716 -31.94279334 41.5472341 -30.6875 38.875 C-30.37876953 38.18535156 -30.07003906 37.49570312 -29.75195312 36.78515625 C-24.87581345 26.04738341 -24.87581345 26.04738341 -20 23 C-17.20251159 22.06750386 -15.45679119 21.86523848 -12.5625 21.875 C-11.80066406 21.87242187 -11.03882813 21.86984375 -10.25390625 21.8671875 C-8.04684141 21.99723985 -6.12030724 22.39143801 -4 23 C-4.04640625 22.42894531 -4.0928125 21.85789062 -4.140625 21.26953125 C-4.48179751 13.60533452 -2.52334994 7.18704134 0 0 Z " fill="#F7B756" transform="translate(608,879)"/>
<path d="M0 0 C4.44385536 0.6607171 6.48608961 3.04872067 9.3828125 6.234375 C9.89457031 6.77320313 10.40632812 7.31203125 10.93359375 7.8671875 C11.93055775 8.91797217 12.92105452 9.97493889 13.90429688 11.03857422 C15.08516125 12.29995208 16.31251739 13.51748183 17.546875 14.7265625 C20.53954219 17.80122057 21.22304117 20.56293487 21.3828125 24.796875 C21.3415625 25.68375 21.3003125 26.570625 21.2578125 27.484375 C20.5978125 27.484375 19.9378125 27.484375 19.2578125 27.484375 C17.23893985 33.05646352 15.77646832 38.45569618 14.8828125 44.3203125 C14.15411666 46.84342184 13.10809359 47.68227831 11.2578125 49.484375 C9.72156354 53.28968134 10.10794098 57.50392047 10.1328125 61.546875 C10.13474609 62.2989624 10.13667969 63.0510498 10.13867188 63.82592773 C10.18426935 69.74916694 10.5462614 75.60137212 11.2578125 81.484375 C9.3203125 82.046875 9.3203125 82.046875 7.2578125 82.484375 C6.2578125 81.484375 6.2578125 81.484375 6.23608398 78.61694336 C6.28321533 77.36534424 6.33034668 76.11374512 6.37890625 74.82421875 C6.40251724 74.15975235 6.42612823 73.49528595 6.45045471 72.8106842 C6.52724935 70.68087221 6.61120463 68.55140954 6.6953125 66.421875 C6.74851744 64.98113709 6.80125793 63.54038195 6.85351562 62.09960938 C6.98288536 58.56098187 7.11867991 55.02263359 7.2578125 51.484375 C6.67483398 51.55221191 6.09185547 51.62004883 5.49121094 51.68994141 C-11.32146052 53.60911719 -11.32146052 53.60911719 -15.7421875 50.109375 C-16.7321875 48.81 -16.7321875 48.81 -17.7421875 47.484375 C-18.7321875 46.824375 -19.7221875 46.164375 -20.7421875 45.484375 C-21.0721875 47.464375 -21.4021875 49.444375 -21.7421875 51.484375 C-22.4021875 51.484375 -23.0621875 51.484375 -23.7421875 51.484375 C-23.5153125 50.35 -23.2884375 49.215625 -23.0546875 48.046875 C-22.48689184 43.6963326 -23.51946757 40.74496147 -25.03515625 36.703125 C-26.14819716 33.21026734 -25.97157422 30.09895368 -25.7421875 26.484375 C-25.79246094 25.7521875 -25.84273437 25.02 -25.89453125 24.265625 C-25.93494562 21.64318133 -25.74626578 19.91979892 -24.7421875 17.484375 C-21.40821625 14.29844865 -17.61554285 11.96251653 -13.7421875 9.484375 C-12.0388098 8.21372027 -10.34965727 6.92362763 -8.6796875 5.609375 C-7.96683594 5.05507813 -7.25398437 4.50078125 -6.51953125 3.9296875 C-2.15523098 0.38069607 -2.15523098 0.38069607 0 0 Z " fill="#F8B856" transform="translate(549.7421875,898.515625)"/>
<path d="M0 0 C4.42938872 1.18593311 5.85234293 2.72861889 8.7578125 6.22265625 C11.23419219 9.15000605 13.65856254 11.99833293 16.375 14.70703125 C19.72470563 18.06832756 19.7790247 20.10224158 19.9609375 24.8046875 C19.52701371 27.67168394 18.12592894 29.49379303 16.6328125 31.97265625 C15.90320954 34.26607732 15.23969317 36.58125167 14.6328125 38.91015625 C13.70456113 42.46458547 12.87286282 45.54097452 11.0847168 48.7565918 C9.42801757 52.42629063 9.28664454 54.89466959 9.33984375 58.90234375 C9.34951172 60.19140625 9.35917969 61.48046875 9.36914062 62.80859375 C9.39420062 64.15495411 9.41959538 65.50130828 9.4453125 66.84765625 C9.46037746 68.2174333 9.47406268 69.58722627 9.48632812 70.95703125 C9.52159871 74.29597983 9.57089354 77.634113 9.6328125 80.97265625 C7.6953125 81.53515625 7.6953125 81.53515625 5.6328125 81.97265625 C5.1378125 81.47765625 5.1378125 81.47765625 4.6328125 80.97265625 C4.7771875 79.71453125 4.9215625 78.45640625 5.0703125 77.16015625 C6.06164665 68.47962776 5.71534582 59.69579353 5.6328125 50.97265625 C4.94445312 51.12347656 4.25609375 51.27429688 3.546875 51.4296875 C-3.5650167 52.7548255 -10.29899331 53.8690959 -16.69140625 49.91796875 C-24.67201142 42.88669047 -24.67201142 42.88669047 -25.3671875 36.97265625 C-25.6971875 36.31265625 -26.0271875 35.65265625 -26.3671875 34.97265625 C-26.6862034 29.23037013 -26.52481431 23.61608696 -25.3671875 17.97265625 C-25.3671875 17.31265625 -25.3671875 16.65265625 -25.3671875 15.97265625 C-23.04213516 14.30891223 -20.71606951 12.75180466 -18.3046875 11.22265625 C-14.03655955 8.47949899 -10.00386101 5.85463948 -6.3671875 2.28515625 C-3.3671875 -0.02734375 -3.3671875 -0.02734375 0 0 Z " fill="#F9B856" transform="translate(939.3671875,899.02734375)"/>
<path d="M0 0 C2.97851562 0.53710938 2.97851562 0.53710938 5.95703125 1.07421875 C3.95703125 5.07421875 3.95703125 5.07421875 2.89453125 6.79296875 C1.62424127 9.88400769 1.76547402 12.49635735 1.83203125 15.82421875 C1.85910156 17.57992187 1.85910156 17.57992187 1.88671875 19.37109375 C1.90992188 20.263125 1.933125 21.15515625 1.95703125 22.07421875 C4.24997613 22.93396676 4.24997613 22.93396676 6.95703125 23.07421875 C9.44361319 21.75694074 9.44361319 21.75694074 10.95703125 19.07421875 C11.24764365 16.17971926 11.3388917 13.6947194 11.20703125 10.82421875 C11.17996094 9.70660156 11.17996094 9.70660156 11.15234375 8.56640625 C11.10538774 6.73512174 11.03364777 4.90450226 10.95703125 3.07421875 C17.46288035 3.6941879 17.46288035 3.6941879 19.69921875 5.4140625 C22.96881227 10.02531681 24.68639099 13.03151828 24.72265625 18.70703125 C23.60084118 22.17550029 21.5855992 22.89595146 18.45703125 24.63671875 C17.43609375 25.11238281 16.41515625 25.58804688 15.36328125 26.078125 C12.54942576 27.95771814 12.54942576 27.95771814 12.42578125 31.7890625 C12.74142059 36.24029456 14.16921791 40.02345249 15.95703125 44.07421875 C16.24320312 44.75355469 16.529375 45.43289063 16.82421875 46.1328125 C17.52247908 47.78536196 18.23795654 49.43061942 18.95703125 51.07421875 C22.16943629 50.78752814 23.03513172 49.99008026 25.28125 47.5703125 C26.45107422 46.05630859 26.45107422 46.05630859 27.64453125 44.51171875 C29.06543126 42.68617618 30.49858745 40.86990919 31.95703125 39.07421875 C32.28703125 39.07421875 32.61703125 39.07421875 32.95703125 39.07421875 C33.40957788 45.28057258 31.19008473 48.81801677 28.171875 54.07421875 C26.73451472 57.62371295 26.92993902 59.42804132 27.95703125 63.07421875 C29.40433218 65.39641533 29.40433218 65.39641533 30.95703125 67.07421875 C29.90515625 67.21859375 28.85328125 67.36296875 27.76953125 67.51171875 C26.51140625 67.69734375 25.25328125 67.88296875 23.95703125 68.07421875 C23.04953125 68.19796875 22.14203125 68.32171875 21.20703125 68.44921875 C18.56076003 69.18429409 17.6897535 69.97468065 15.95703125 72.07421875 C14.13420877 82.18259793 14.33676539 92.94755712 15.95703125 103.07421875 C13.48203125 103.56921875 13.48203125 103.56921875 10.95703125 104.07421875 C9.8257348 100.6803294 10.25280088 98.53252095 10.95703125 95.07421875 C11.09706755 93.30969479 11.20103905 91.54202831 11.2734375 89.7734375 C11.31533203 88.79697266 11.35722656 87.82050781 11.40039062 86.81445312 C11.43970703 85.80705078 11.47902344 84.79964844 11.51953125 83.76171875 C11.56271484 82.73498047 11.60589844 81.70824219 11.65039062 80.65039062 C11.7560995 78.12512306 11.85819593 75.59976313 11.95703125 73.07421875 C10.27673828 72.65849609 10.27673828 72.65849609 8.5625 72.234375 C7.08982823 71.86855208 5.61717283 71.50266322 4.14453125 71.13671875 C3.40654297 70.95431641 2.66855469 70.77191406 1.90820312 70.58398438 C-1.11357859 69.83195725 -4.08753593 69.05936302 -7.04296875 68.07421875 C-6.71296875 69.72421875 -6.38296875 71.37421875 -6.04296875 73.07421875 C-7.36296875 73.07421875 -8.68296875 73.07421875 -10.04296875 73.07421875 C-9.96046875 71.96046875 -9.87796875 70.84671875 -9.79296875 69.69921875 C-9.76673306 65.99998665 -10.58464493 63.33828114 -12.04296875 59.94921875 C-14.91343626 53.16541604 -14.91343626 53.16541604 -14.04296875 49.07421875 C-11.41446571 44.17333244 -8.66435388 40.23886291 -4.04296875 37.07421875 C-4.09795532 37.92016602 -4.09795532 37.92016602 -4.15405273 38.78320312 C-5.14316813 49.78295524 -5.14316813 49.78295524 -2.484375 60.18359375 C-0.77103921 62.07274469 0.8546038 63.63684488 2.95703125 65.07421875 C8.24314614 63.71815029 8.24314614 63.71815029 11.95703125 60.07421875 C12.9094972 55.91800371 12.54547242 54.09804695 10.41015625 50.3828125 C7.30636271 45.96171124 4.26390265 42.10941922 -0.04296875 38.82421875 C-1.7890625 37.44921875 -1.7890625 37.44921875 -3.04296875 36.07421875 C-3.08783225 33.74131676 -3.08185224 31.40722808 -3.04296875 29.07421875 C-4.34609435 26.61830111 -4.34609435 26.61830111 -6.04296875 24.13671875 C-9.14261956 19.28157851 -9.96479315 16.78953001 -9.04296875 11.07421875 C-4.98006275 0.18092006 -4.98006275 0.18092006 0 0 Z " fill="#F7B756" transform="translate(389.04296875,879.92578125)"/>
<path d="M0 0 C1.52392578 1.22753906 1.52392578 1.22753906 2.9453125 2.765625 C3.72455078 3.60673828 3.72455078 3.60673828 4.51953125 4.46484375 C5.04933594 5.05394531 5.57914063 5.64304687 6.125 6.25 C6.66253906 6.82363281 7.20007813 7.39726563 7.75390625 7.98828125 C11.69622902 12.30419072 14.2974642 16.0733149 14.25 22.125 C14 26 14 26 12 29 C11.9067964 33.07765738 12.62549869 37.00867299 14.0625 40.8125 C15.52301635 45.7782556 15.34400149 50.85597771 15 56 C14.67 56.33 14.34 56.66 14 57 C13.83989519 59.73701178 13.74053172 62.4516759 13.68359375 65.19140625 C13.66281265 66.01124496 13.64203156 66.83108368 13.62062073 67.67576599 C13.55503506 70.30458901 13.49619874 72.93351504 13.4375 75.5625 C13.39432333 77.34050561 13.35070933 79.11850065 13.30664062 80.89648438 C13.19934457 85.26421634 13.09810296 89.63205227 13 94 C11 92 11 92 10.8046875 89.05078125 C10.82789063 87.81714844 10.85109375 86.58351563 10.875 85.3125 C10.88257324 84.65419189 10.89014648 83.99588379 10.89794922 83.31762695 C10.9307055 80.49757888 10.98701301 77.67810664 11.04101562 74.85839844 C11.07708562 72.80145933 11.10133477 70.74461307 11.125 68.6875 C11.14820313 67.45386719 11.17140625 66.22023438 11.1953125 64.94921875 C11.3171795 61.87795594 11.3171795 61.87795594 9 60 C8.95101562 61.13179687 8.90203125 62.26359375 8.8515625 63.4296875 C8.77653486 64.91148339 8.70098703 66.393253 8.625 67.875 C8.57859375 68.99455078 8.57859375 68.99455078 8.53125 70.13671875 C8.2265625 75.7734375 8.2265625 75.7734375 6 78 C5.00615603 74.74741974 4.95173269 71.96534629 5.12109375 68.578125 C5.19360352 67.04091797 5.19360352 67.04091797 5.26757812 65.47265625 C5.32365234 64.40917969 5.37972656 63.34570312 5.4375 62.25 C5.51581055 60.63158203 5.51581055 60.63158203 5.59570312 58.98046875 C5.72519469 56.32000578 5.86015361 53.65993548 6 51 C0.98335352 51.4096757 -3.48524973 51.81020225 -8.0625 54.0625 C-9.19365234 54.60583984 -9.19365234 54.60583984 -10.34765625 55.16015625 C-10.89292969 55.43730469 -11.43820313 55.71445312 -12 56 C-12.10152799 62.7685324 -12.03026944 69.30324864 -11 76 C-12.98 76.495 -12.98 76.495 -15 77 C-15.79953138 73.71303767 -16.09658936 72.28976808 -15 69 C-14.48751609 61.7069597 -14.30858724 55.42579258 -18 49 C-18.86625 48.0409375 -18.86625 48.0409375 -19.75 47.0625 C-21.38014827 44.37275536 -21.16674841 42.33245859 -20.63671875 39.2890625 C-19.02857652 33.50764319 -16.65925758 28.54612638 -12.25 24.4375 C-8.71971872 22.87602943 -5.8737021 22.44510579 -2.05078125 22.2734375 C0.30874485 22.11185214 0.30874485 22.11185214 3 20 C2.67039784 14.98464948 2.67039784 14.98464948 0 11 C-6.21587288 10.0541063 -10.80121025 12.36566586 -16.42578125 14.90625 C-19 16 -19 16 -21 16 C-21.42464563 12.34804762 -21.38766487 10.55380696 -19.25 7.5 C-14.45135099 3.26833834 -6.42490714 -2.36233963 0 0 Z " fill="#F3B454" transform="translate(125,896)"/>
<path d="M0 0 C2.286241 1.81778502 4.16577249 4.02567598 6.125 6.1875 C6.66253906 6.75275391 7.20007813 7.31800781 7.75390625 7.90039062 C11.95515321 12.47356842 13.81489454 16.31597086 14.25 22.625 C14 26 14 26 12.9375 27.9375 C11.43270073 31.2480584 12.2067507 34.56471875 13 38 C13.34289062 38.76828125 13.68578125 39.5365625 14.0390625 40.328125 C15.22331941 43.62093689 15.19548986 46.32325204 15.125 49.8125 C15.10695313 50.97394531 15.08890625 52.13539063 15.0703125 53.33203125 C15.04710937 54.21246094 15.02390625 55.09289062 15 56 C14.34 56 13.68 56 13 56 C13.24447876 57.25031006 13.24447876 57.25031006 13.49389648 58.52587891 C14.03867786 62.26550217 14.11277058 65.80735604 14.09765625 69.5859375 C14.0962413 70.28772125 14.09482635 70.989505 14.09336853 71.71255493 C14.0878129 73.93341504 14.07526892 76.15417084 14.0625 78.375 C14.05747926 79.88932145 14.05291736 81.4036445 14.04882812 82.91796875 C14.03785807 86.61201252 14.02062449 90.30599606 14 94 C13.34 94 12.68 94 12 94 C11.67 83.11 11.34 72.22 11 61 C10.34 61 9.68 61 9 61 C8.67 66.61 8.34 72.22 8 78 C6.515 77.505 6.515 77.505 5 77 C5.04543945 75.97845825 5.04543945 75.97845825 5.09179688 74.9362793 C5.22854568 71.85338264 5.36428451 68.77044231 5.5 65.6875 C5.54769531 64.61564453 5.59539062 63.54378906 5.64453125 62.43945312 C5.71220703 60.89741211 5.71220703 60.89741211 5.78125 59.32421875 C5.82314453 58.37635498 5.86503906 57.42849121 5.90820312 56.4519043 C5.9762031 54.63561776 6 52.81755902 6 51 C-0.81987029 51.43300764 -5.91643021 52.90787824 -12 56 C-12.13810221 63.04321257 -11.5988915 69.98441385 -11 77 C-11.99 76.67 -12.98 76.34 -14 76 C-13.505 75.505 -13.505 75.505 -13 75 C-13.66 74.67 -14.32 74.34 -15 74 C-14.94779297 72.04707031 -14.94779297 72.04707031 -14.89453125 70.0546875 C-14.86638099 68.32813796 -14.83908216 66.60157439 -14.8125 64.875 C-14.78736328 64.0190625 -14.76222656 63.163125 -14.73632812 62.28125 C-14.65856587 55.54185419 -16.24581647 51.6312753 -20 46 C-21.23275824 39.65453915 -19.36355349 34.76246513 -16.484375 29.1640625 C-14.12824972 25.72907986 -12.16115165 24.27742952 -8.08984375 23.3046875 C-7.04957031 23.16289063 -6.00929688 23.02109375 -4.9375 22.875 C-1.78944926 22.43139334 0.97965151 22.00678283 4 21 C3.54177532 17.53058454 3.10868317 14.32604951 2 11 C-4.52863433 10.57879778 -8.8843029 11.40425276 -14.8359375 14.125 C-17 15 -17 15 -20 15 C-20.49113233 9.59754434 -20.49113233 9.59754434 -18.359375 7.00390625 C-15.71264635 4.7559397 -13.10006407 3.24915728 -10 1.6875 C-8.96875 1.15511719 -7.9375 0.62273438 -6.875 0.07421875 C-3.75795561 -1.09043778 -3.01216753 -1.10874181 0 0 Z " fill="#F5B555" transform="translate(267,896)"/>
<path d="M0 0 C5.99564211 0.35191812 12.77889686 2.41941621 17.8203125 5.67578125 C19.71005724 8.59800243 19.49692652 11.44397895 19.625 14.875 C19.80755372 19.28236828 20.13065299 23.15326493 21 27.5 C15.72 27.5 10.44 27.5 5 27.5 C5 29.48 5 31.46 5 33.5 C4.34 33.5 3.68 33.5 3 33.5 C3.33 31.52 3.66 29.54 4 27.5 C2.22992286 27.41885894 0.45877902 27.36074495 -1.3125 27.3125 C-2.29863281 27.27769531 -3.28476562 27.24289062 -4.30078125 27.20703125 C-6.98377387 27.29250165 -6.98377387 27.29250165 -8.8359375 28.6953125 C-10.38268932 31.09329687 -10.36680215 32.72625694 -10.3125 35.5625 C-10.30863281 36.44035156 -10.30476562 37.31820312 -10.30078125 38.22265625 C-10.20899334 40.69662769 -10.20899334 40.69662769 -8 42.5 C-2.23667808 45.2299946 3.77560898 44.68129294 10 44.5 C10.33 43.84 10.66 43.18 11 42.5 C13.86319855 43.54983947 14.8499428 44.23398952 16.375 46.9375 C16.58125 47.783125 16.7875 48.62875 17 49.5 C16.34 50.49 15.68 51.48 15 52.5 C14.55058745 54.88299617 14.18393057 57.28225484 13.875 59.6875 C13.62363281 61.59595703 13.62363281 61.59595703 13.3671875 63.54296875 C13.18542969 65.00669922 13.18542969 65.00669922 13 66.5 C12.67 66.5 12.34 66.5 12 66.5 C12 62.21 12 57.92 12 53.5 C9.03 53.995 9.03 53.995 6 54.5 C1.71 54.5 -2.58 54.5 -7 54.5 C-6.67 64.07 -6.34 73.64 -6 83.5 C-7.98 83.995 -7.98 83.995 -10 84.5 C-10.66 83.84 -11.32 83.18 -12 82.5 C-11.44444444 77.94444444 -11.44444444 77.94444444 -10 76.5 C-9.7207056 73.25849221 -9.7681682 70.00210698 -9.75 66.75 C-9.729375 65.8425 -9.70875 64.935 -9.6875 64 C-9.65745681 58.86261408 -9.91062036 55.77414173 -13 51.5 C-13.718833 49.560208 -14.38441956 47.59998724 -15 45.625 C-16.08465867 42.18256978 -17.14679122 39.21654109 -18.8125 36 C-21.20030889 28.96224749 -19.73674098 20.45705732 -17.21484375 13.53125 C-15.23411935 10.21942785 -12.40076966 8.26194875 -9.25390625 6.10546875 C-6.91119351 4.53975724 -6.91119351 4.53975724 -4.90234375 2.33203125 C-3 0.5 -3 0.5 0 0 Z " fill="#F6B655" transform="translate(644,898.5)"/>
<path d="M0 0 C0.33 0.66 0.66 1.32 1 2 C3.2517743 2.31880055 3.2517743 2.31880055 5.9375 2.375 C12.40138745 2.83911724 19.28302013 4.28302013 24 9 C24.60331557 11.84049053 25.11791499 14.63489657 25.5625 17.5 C26.25140411 22.90687712 26.25140411 22.90687712 28 28 C28.29295155 31.63946843 28.27787107 35.28761064 28.3125 38.9375 C28.34150391 39.95263672 28.37050781 40.96777344 28.40039062 42.01367188 C28.40876953 42.98755859 28.41714844 43.96144531 28.42578125 44.96484375 C28.44036377 45.8580835 28.45494629 46.75132324 28.4699707 47.67163086 C27.84743797 50.75583589 26.45826174 51.1715951 24 53 C23.35996047 55.33499713 23.35996047 55.33499713 23.390625 57.97265625 C23.35839844 58.95556641 23.32617188 59.93847656 23.29296875 60.95117188 C23.27878906 61.97791016 23.26460937 63.00464844 23.25 64.0625 C23.20552734 65.56200195 23.20552734 65.56200195 23.16015625 67.09179688 C22.98816758 73.39395328 22.96865789 79.69588189 23 86 C22.34 86 21.68 86 21 86 C20.80613508 83.35448944 20.61961733 80.70882217 20.4375 78.0625 C20.35338867 76.93038086 20.35338867 76.93038086 20.26757812 75.77539062 C20.13823843 73.85254042 20.06483088 71.92610452 20 70 C20.33 69.67 20.66 69.34 21 69 C21.23678716 66.30764224 21.42198025 63.63501844 21.5625 60.9375 C21.62727539 59.79958008 21.62727539 59.79958008 21.69335938 58.63867188 C21.79973633 56.75934562 21.90039934 54.87969756 22 53 C21.360625 52.731875 20.72125 52.46375 20.0625 52.1875 C18 51 18 51 17 48 C17.04152148 46.03188195 17.08749336 44.06364945 17.16650391 42.09667969 C17.52664418 31.97484253 15.73855615 24.38037724 12 15 C11.69835937 13.89140625 11.39671875 12.7828125 11.0859375 11.640625 C10.54839844 10.33351563 10.54839844 10.33351563 10 9 C8.68 8.67 7.36 8.34 6 8 C6 16.91 6 25.82 6 35 C4.68 34.67 3.36 34.34 2 34 C2.165 33.01 2.33 32.02 2.5 31 C3.39377749 24.05119475 3.07635992 16.99117499 3 10 C2.34 10 1.68 10 1 10 C0.86722656 10.62648438 0.73445312 11.25296875 0.59765625 11.8984375 C0.33275391 13.12433594 0.33275391 13.12433594 0.0625 14.375 C-0.11152344 15.18710937 -0.28554687 15.99921875 -0.46484375 16.8359375 C-1 19 -1 19 -2 21 C-2.48540432 25.58333693 -2.35708683 29.18167601 -0.5 33.4375 C1.44823637 38.06456138 1.64591147 42.04241977 1 47 C-0.16432069 49.48050929 -1.09425952 51.09425952 -3 53 C-10.45864662 53.36090226 -10.45864662 53.36090226 -14 51 C-13.855625 50.319375 -13.71125 49.63875 -13.5625 48.9375 C-13.376875 47.968125 -13.19125 46.99875 -13 46 C-12.79375 44.989375 -12.5875 43.97875 -12.375 42.9375 C-11.79691764 36.86763522 -11.72062398 30.19351936 -14.015625 24.46484375 C-16.02108386 19.44323844 -16.04847565 13.64718439 -14.0546875 8.61328125 C-10.67018928 2.85537705 -7.01115955 -0.60095653 0 0 Z " fill="#F8B856" transform="translate(163,898)"/>
<path d="M0 0 C0.14695312 1.25103516 0.14695312 1.25103516 0.296875 2.52734375 C0.76401075 6.04294294 1.34692265 9.514298 2 13 C2.15210938 13.85335937 2.30421875 14.70671875 2.4609375 15.5859375 C3.74798464 19.90133084 5.65326041 21.96940591 9.5390625 24.1171875 C13.01785127 25.88175461 16.5661558 27.48941943 20.11523438 29.10644531 C23.81735704 30.86159673 27.37861192 32.79514167 30 36 C30.375 39.25 30.375 39.25 30 43 C30.43192391 44.67370516 30.89216798 46.34026494 31.375 48 C32.05095913 51.03255639 32.32480654 52.38062753 30.8671875 55.16015625 C28.77608958 57.61997434 26.90002619 59.5499869 24 61 C23.82991075 64.95819387 23.66456382 68.91657286 23.5 72.875 C23.45230469 73.98359375 23.40460937 75.0921875 23.35546875 76.234375 C23.08397482 82.827799 22.93279712 89.40105034 23 96 C22.01 96.33 21.02 96.66 20 97 C19.87669585 85.28610535 20.1716494 73.68566021 21 62 C19.91460938 62.2165625 18.82921875 62.433125 17.7109375 62.65625 C16.2656821 62.93779326 14.82036635 63.21902686 13.375 63.5 C12.66214844 63.64308594 11.94929687 63.78617188 11.21484375 63.93359375 C0.56133293 65.98610501 0.56133293 65.98610501 -3.375 63.5 C-3.91125 63.005 -4.4475 62.51 -5 62 C-4.99476318 62.59538574 -4.98952637 63.19077148 -4.98413086 63.80419922 C-4.96338001 66.49445547 -4.95034593 69.18469489 -4.9375 71.875 C-4.92912109 72.81214844 -4.92074219 73.74929688 -4.91210938 74.71484375 C-4.90888672 75.61074219 -4.90566406 76.50664063 -4.90234375 77.4296875 C-4.89710693 78.25710449 -4.89187012 79.08452148 -4.88647461 79.93701172 C-5 82 -5 82 -6 84 C-7.66611905 84.042721 -9.33382885 84.04063832 -11 84 C-11.33 83.67 -11.66 83.34 -12 83 C-11.9140625 81.0390625 -11.9140625 81.0390625 -11.625 78.625 C-11.53476562 77.83351563 -11.44453125 77.04203125 -11.3515625 76.2265625 C-11 74 -11 74 -10 71 C-9.85243719 68.50562103 -9.76913611 66.05737022 -9.75 63.5625 C-9.72421875 62.24378906 -9.6984375 60.92507813 -9.671875 59.56640625 C-10.01958859 55.78709073 -10.65835159 54.80381586 -13 52 C-13 50.68 -13 49.36 -13 48 C-9.07703567 46.69234522 -6.13997567 46.8028583 -2 47 C0 49 0 49 1.4375 52.4375 C2.99060658 56.38550981 2.99060658 56.38550981 6 59 C10.33243205 58.81564119 12.69987723 57.71081513 16 55 C16.66 55 17.32 55 18 55 C20.23244396 50.66643232 20.25804803 47.69671265 19 43 C14.29405162 37.20806353 7.74810938 34.45317667 1.21679688 31.10546875 C-5.81175795 27.39522791 -10.03081659 23.57141769 -13 16 C-13.5400068 13.01822332 -13.39601078 11.11858489 -13 8 C-9.68328359 3.73565033 -5.57782107 0 0 0 Z " fill="#F6B655" transform="translate(722,886)"/>
<path d="M0 0 C1.10988281 0.42796875 2.21976563 0.8559375 3.36328125 1.296875 C4.48089844 1.71453125 5.59851563 2.1321875 6.75 2.5625 C11.17006256 4.80498835 12.72012197 7.60359597 14.30078125 12.171875 C15.01669608 14.21184737 15.70803537 16.11138325 16.67578125 18.046875 C14.17578125 18.421875 14.17578125 18.421875 10.67578125 18.046875 C8.03578125 16.066875 5.39578125 14.086875 2.67578125 12.046875 C2.67578125 19.636875 2.67578125 27.226875 2.67578125 35.046875 C1.68578125 35.046875 0.69578125 35.046875 -0.32421875 35.046875 C-1.60974183 28.93814905 -1.35170915 22.97262592 -1.19726562 16.77148438 C-1.18630859 15.95099609 -1.17535156 15.13050781 -1.1640625 14.28515625 C-1.14722412 13.54305908 -1.13038574 12.80096191 -1.11303711 12.03637695 C-1.20268659 9.72675111 -1.20268659 9.72675111 -3.32421875 7.046875 C-7.02044022 6.45883977 -9.04476515 6.91832634 -12.44921875 8.484375 C-18.31055074 13.70860569 -19.77199863 20.45384839 -20.32421875 28.046875 C-19.66421875 28.046875 -19.00421875 28.046875 -18.32421875 28.046875 C-18.81000418 31.16978135 -19.32281995 34.04267859 -20.32421875 37.046875 C-21.12881832 45.61895501 -19.74230104 53.09755123 -14.69921875 60.171875 C-12.81352822 62.19863964 -11.86111652 62.96260004 -9.109375 63.39453125 C-5.38080188 63.14016936 -2.73581309 62.27056758 0.55078125 60.484375 C3.34394827 57.28044812 4.43038253 54.06248754 5.67578125 50.046875 C7.21301103 45.33270366 7.21301103 45.33270366 9.80078125 43.734375 C10.41953125 43.5075 11.03828125 43.280625 11.67578125 43.046875 C13.609375 44.0546875 13.609375 44.0546875 15.67578125 46.046875 C16.2759554 48.8118564 16.59513992 51.13438595 16.73828125 53.921875 C16.80982422 54.62957031 16.88136719 55.33726562 16.95507812 56.06640625 C17.0859375 58.1640625 17.0859375 58.1640625 16.67578125 62.046875 C15.47695312 63.17029297 15.47695312 63.17029297 14.25390625 64.31640625 C10.24173577 68.56565953 10.64994634 73.20551042 10.36328125 78.859375 C10.2540332 80.47102539 10.2540332 80.47102539 10.14257812 82.11523438 C9.96635963 84.75851182 9.81151083 87.40126075 9.67578125 90.046875 C9.01578125 90.046875 8.35578125 90.046875 7.67578125 90.046875 C8.00578125 84.436875 8.33578125 78.826875 8.67578125 73.046875 C5.55793012 73.69332161 5.55793012 73.69332161 4.67578125 76.046875 C4.52454294 77.5664514 4.42696432 79.09160002 4.359375 80.6171875 C4.2965332 81.96103516 4.2965332 81.96103516 4.23242188 83.33203125 C4.19310547 84.26917969 4.15378906 85.20632813 4.11328125 86.171875 C4.04850586 87.58919922 4.04850586 87.58919922 3.98242188 89.03515625 C3.87619053 91.37224592 3.77414949 93.7094433 3.67578125 96.046875 C3.01578125 96.046875 2.35578125 96.046875 1.67578125 96.046875 C0.54727658 90.65513045 0.54727658 90.65513045 1.14453125 87.828125 C1.82113111 84.28592574 1.78293068 80.82350227 1.73828125 77.234375 C1.73376953 76.54150391 1.72925781 75.84863281 1.72460938 75.13476562 C1.71291281 73.43876432 1.69498049 71.74280797 1.67578125 70.046875 C-0.09539062 69.86511719 -0.09539062 69.86511719 -1.90234375 69.6796875 C-3.45967918 69.5108198 -5.01696852 69.34152665 -6.57421875 69.171875 C-7.35152344 69.09324219 -8.12882812 69.01460937 -8.9296875 68.93359375 C-16.81035786 68.05796371 -16.81035786 68.05796371 -19.32421875 66.046875 C-23.24973042 58.95767604 -24.87914096 51.64910809 -24.98828125 43.60546875 C-25.10220177 40.98648964 -25.10220177 40.98648964 -26.83398438 39.21484375 C-28.69684249 36.50478804 -28.64157513 35.05673659 -28.50390625 31.80078125 C-28.46265625 30.79853516 -28.42140625 29.79628906 -28.37890625 28.76367188 C-28.31960937 27.72275391 -28.2603125 26.68183594 -28.19921875 25.609375 C-28.14507812 24.05379883 -28.14507812 24.05379883 -28.08984375 22.46679688 C-27.77136759 15.94222603 -27.18189097 11.73135496 -22.26171875 7.109375 C-8.6172834 -2.47076046 -8.6172834 -2.47076046 0 0 Z " fill="#F3B454" transform="translate(75.32421875,880.953125)"/>
<path d="M0 0 C1.98 0 3.96 0 6 0 C9.57711787 6.00032674 11.14323968 9.91834878 11.1875 17 C11.20167969 18.03125 11.21585938 19.0625 11.23046875 20.125 C10.99637662 23.0452001 10.30509077 24.44567837 9 27 C8.68461103 29.6490303 8.68461103 29.6490303 8.75 32.4375 C8.74484375 33.36433594 8.7396875 34.29117188 8.734375 35.24609375 C8.86824357 38.04069503 8.86824357 38.04069503 10.078125 40.59765625 C11.16335235 43.42568516 10.87173064 44.17332312 10 47 C9.77882441 49.4138176 9.59427758 51.83114597 9.4375 54.25 C9.35371094 55.51328125 9.26992188 56.7765625 9.18359375 58.078125 C9.09271484 59.52445313 9.09271484 59.52445313 9 61 C8.67 61 8.34 61 8 61 C8 58.36 8 55.72 8 53 C6.00016466 53.79117904 6.00016466 53.79117904 4 55 C3.13580777 57.59257669 2.82419068 59.34037707 2.68359375 62.01171875 C2.62075195 63.14770508 2.62075195 63.14770508 2.55664062 64.30664062 C2.51732422 65.09232422 2.47800781 65.87800781 2.4375 66.6875 C2.37272461 67.88342773 2.37272461 67.88342773 2.30664062 69.10351562 C2.20072632 71.06881447 2.09987449 73.03438496 2 75 C1.34 74.67 0.68 74.34 0 74 C0 65.75 0 57.5 0 49 C-0.66 48.67 -1.32 48.34 -2 48 C-2 47.34 -2 46.68 -2 46 C-2.98742187 46.5775 -3.97484375 47.155 -4.9921875 47.75 C-6.28632735 48.500226 -7.58060537 49.25021368 -8.875 50 C-9.52597656 50.3815625 -10.17695312 50.763125 -10.84765625 51.15625 C-15.7734375 54 -15.7734375 54 -18 54 C-22.87209511 45.67486662 -25.25245149 37.71990962 -26.66015625 28.25048828 C-27.02764701 25.81691802 -27.43306643 23.39148419 -27.84375 20.96484375 C-28.12603321 19.26840077 -28.40730092 17.57178846 -28.6875 15.875 C-28.81922607 15.08150146 -28.95095215 14.28800293 -29.08666992 13.47045898 C-29.20631104 12.71450439 -29.32595215 11.9585498 -29.44921875 11.1796875 C-29.55580811 10.51694824 -29.66239746 9.85420898 -29.7722168 9.17138672 C-30.05649997 6.46140325 -30 3.72485364 -30 1 C-25.38 1 -20.76 1 -16 1 C-16.33 2.32 -16.66 3.64 -17 5 C-17.09360017 7.28366766 -17.13070027 9.56988468 -17.1328125 11.85546875 C-17.13376923 12.51654129 -17.13472595 13.17761383 -17.13571167 13.85871887 C-17.13639074 15.25648087 -17.13455551 16.65424606 -17.13037109 18.05200195 C-17.12506163 20.16299781 -17.13030312 22.27377673 -17.13671875 24.38476562 C-17.13979808 31.32774023 -16.96456616 38.11789703 -16 45 C-9.95450872 43.54236962 -9.95450872 43.54236962 -5 40 C-3.98295399 36.96948333 -3.91683183 34.25582056 -4.0078125 31.078125 C-4.02457031 30.13453125 -4.04132812 29.1909375 -4.05859375 28.21875 C-4.10251954 26.25500891 -4.15447476 24.29142939 -4.21484375 22.328125 C-4.30817636 16.08332488 -3.49837553 11.72147068 -1 6 C-0.60919203 4.01043215 -0.25149128 2.01193023 0 0 Z " fill="#F7B756" transform="translate(822,899)"/>
<path d="M0 0 C0.71671875 0.26296875 1.4334375 0.5259375 2.171875 0.796875 C3.77289063 1.22226562 3.77289063 1.22226562 5.40625 1.65625 C14.17090436 4.34407734 14.17090436 4.34407734 16.859375 8.24609375 C17.85658055 10.7574386 18.5826305 13.16313065 19.171875 15.796875 C19.666875 17.281875 19.666875 17.281875 20.171875 18.796875 C12.87180521 18.49270543 11.82911145 16.78980234 5.171875 11.796875 C5.501875 20.046875 5.831875 28.296875 6.171875 36.796875 C4.851875 36.466875 3.531875 36.136875 2.171875 35.796875 C2.046875 30.046875 2.046875 30.046875 3.171875 27.796875 C3.29577318 25.54941966 3.3475035 23.29771158 3.359375 21.046875 C3.37355469 19.83515625 3.38773437 18.6234375 3.40234375 17.375 C3.17429322 13.83441882 2.44972152 11.08998145 1.171875 7.796875 C-3.44924583 7.90762082 -6.83995565 8.10945284 -10.703125 10.796875 C-14.55670888 16.23722871 -16.43743017 22.09451809 -15.828125 28.796875 C-15.6425 29.68375 -15.456875 30.570625 -15.265625 31.484375 C-14.828125 33.796875 -14.828125 33.796875 -15.828125 36.796875 C-16.64121617 45.72926232 -16.34146842 53.41189658 -10.828125 60.796875 C-8.38628559 62.92810861 -7.25152867 63.73101221 -4.015625 64.234375 C-0.00851691 63.68437977 3.06887371 62.35350523 6.171875 59.796875 C7.67714413 57.36390384 8.51702103 54.83341815 9.359375 52.109375 C11.59581754 45.13923775 11.59581754 45.13923775 14.09765625 43.65234375 C17.11184259 43.8623718 18.14337848 44.54153586 20.171875 46.796875 C21.42515201 52.16538997 22.40355341 58.91649321 20.1796875 64.1171875 C18.859375 65.734375 18.859375 65.734375 16.171875 67.796875 C15.511875 67.796875 14.851875 67.796875 14.171875 67.796875 C14.18347656 68.786875 14.19507813 69.776875 14.20703125 70.796875 C14.2615969 77.53488033 14.26085524 84.12687103 13.171875 90.796875 C12.841875 90.796875 12.511875 90.796875 12.171875 90.796875 C12.171875 85.516875 12.171875 80.236875 12.171875 74.796875 C11.181875 75.126875 10.191875 75.456875 9.171875 75.796875 C8.28548111 78.45605666 7.99198475 80.27752141 7.85546875 83.02734375 C7.79262695 84.23100586 7.79262695 84.23100586 7.72851562 85.45898438 C7.68919922 86.29236328 7.64988281 87.12574219 7.609375 87.984375 C7.56619141 88.82935547 7.52300781 89.67433594 7.47851562 90.54492188 C7.37255982 92.62871933 7.2717248 94.71277603 7.171875 96.796875 C6.511875 96.466875 5.851875 96.136875 5.171875 95.796875 C5.171875 87.546875 5.171875 79.296875 5.171875 70.796875 C-0.19571111 70.33893212 -0.19571111 70.33893212 -5.56713867 69.9309082 C-9.55927387 69.5261428 -11.48816503 69.06154182 -14.73828125 66.53125 C-19.99393344 59.65469574 -21.26484763 51.91577511 -21.45703125 43.42578125 C-21.60602783 40.7365292 -21.60602783 40.7365292 -23.37109375 38.8984375 C-25.54876804 35.75744885 -24.92911663 33.35201402 -24.578125 29.609375 C-24.51729736 28.94244629 -24.45646973 28.27551758 -24.39379883 27.58837891 C-24.21470516 25.65697661 -24.02172399 23.72687728 -23.828125 21.796875 C-23.77527344 20.87003906 -23.72242188 19.94320312 -23.66796875 18.98828125 C-23.33263576 13.88950012 -22.26595092 11.50354921 -18.828125 7.796875 C-6.3673734 -1.79592583 -6.3673734 -1.79592583 0 0 Z " fill="#F2B354" transform="translate(495.828125,880.203125)"/>
<path d="M0 0 C1.43655854 -0.08131463 2.8744483 -0.13933559 4.3125 -0.1875 C5.51326172 -0.23970703 5.51326172 -0.23970703 6.73828125 -0.29296875 C9 0 9 0 10.73046875 1.32421875 C13.07650209 4.42098276 13.07367318 7.2708164 13.1875 11 C13.71928529 17.67390544 16.56955316 22.38571433 20 28 C20.68182467 29.32564601 21.35461855 30.65623476 22 32 C22.26554687 31.33613281 22.53109375 30.67226563 22.8046875 29.98828125 C26 22 26 22 27.15625 19.34375 C28.27804599 16.22765002 27.63372229 14.23198366 27 11 C26.90813163 8.32614696 26.95385231 5.67656628 27 3 C31.34604012 0.95480465 34.13603617 -0.20161508 39 0 C37.32900773 22.44846201 37.32900773 22.44846201 32.01733398 32.94116211 C29.22417274 38.71192069 28.24140484 43.82139564 27.8125 50.1875 C27.67483126 51.91028923 27.53554844 53.63295037 27.39453125 55.35546875 C27.30099365 56.55308838 27.30099365 56.55308838 27.20556641 57.77490234 C26.94960886 60.54544514 26.51449649 63.26645775 26 66 C25.67 66 25.34 66 25 66 C25 61.05 25 56.1 25 51 C23.783125 51.0825 22.56625 51.165 21.3125 51.25 C17.94024603 51.26193718 17.08950539 51.05837308 14.125 49.125 C12.75 47.75 11.375 46.375 10 45 C9.97500774 49.23176701 9.95700377 53.46349323 9.94506836 57.6953125 C9.94008493 59.13054148 9.93329575 60.56576551 9.92456055 62.00097656 C9.87684423 70.05100017 9.93138249 78.00283763 11 86 C9.02 86.495 9.02 86.495 7 87 C7.00444122 86.45115143 7.00888245 85.90230286 7.01345825 85.33682251 C7.05835032 79.52730973 7.08813361 73.71784762 7.10986328 67.90820312 C7.11980595 65.75160719 7.1333648 63.5950243 7.15087891 61.43847656 C7.25611643 48.12902512 6.83592607 35.18772319 5 22 C4.76591431 20.18834351 4.76591431 20.18834351 4.52709961 18.34008789 C3.71716941 12.24176098 2.21091462 8.20389612 -1 3 C-0.67 2.01 -0.34 1.02 0 0 Z " fill="#F7B756" transform="translate(197,899)"/>
<path d="M0 0 C2.22083366 1.99875029 4.00220217 3.67045929 5.5 6.25 C5.5 7.24 5.5 8.23 5.5 9.25 C2.69084526 10.65457737 0.61189466 10.49895157 -2.5 10.25 C-3.11875 9.775625 -3.7375 9.30125 -4.375 8.8125 C-7.577049 6.45805221 -10.5726577 6.57727853 -14.5 6.25 C-16.90878908 8.84017323 -16.90878908 8.84017323 -17.4375 12.1875 C-14.80515016 17.97866965 -11.40100507 19.96545844 -5.75 22.2890625 C-0.5219691 24.52186737 3.15549865 27.0132166 5.5 32.25 C5.13671875 35.4921875 5.13671875 35.4921875 4.1875 39.125 C1.74083184 49.47974077 1.8684478 59.7905256 3.4765625 70.296875 C3.5 72.25 3.5 72.25 1.5 75.25 C0.015 74.755 0.015 74.755 -1.5 74.25 C-1.17 65.67 -0.84 57.09 -0.5 48.25 C-3.47 49.24 -6.44 50.23 -9.5 51.25 C-12.98621282 51.79096406 -15.20005551 52.02996669 -18.27734375 50.18359375 C-22.70484049 46.62803291 -26.63987172 42.16355372 -29.5 37.25 C-29.5 36.26 -29.5 35.27 -29.5 34.25 C-26.25 34.375 -26.25 34.375 -22.5 35.25 C-20.0625 38.3125 -20.0625 38.3125 -18.5 41.25 C-12.62120644 41.12356231 -12.62120644 41.12356231 -7.4375 38.75 C-6.01229233 34.94944622 -6.268551 31.26178261 -6.5 27.25 C-9.08759114 25.95620443 -11.44104424 25.8540636 -14.3125 25.5 C-21.0323541 24.42836859 -21.0323541 24.42836859 -23.6875 21.8125 C-27.1271636 16.94952733 -27.11848348 12.01354894 -26.5 6.25 C-25 2.75 -25 2.75 -22.5 0.25 C-15.42478784 -2.48078364 -6.90084456 -3.45042228 0 0 Z " fill="#F3B455" transform="translate(321.5,900.75)"/>
<path d="M0 0 C1.98 0 3.96 0 6 0 C6 4.95 6 9.9 6 15 C8.475 15.495 8.475 15.495 11 16 C10.38125 16.28875 9.7625 16.5775 9.125 16.875 C6.86674235 17.93720042 6.86674235 17.93720042 5 20 C4.78997699 23.09783943 4.8111918 25.911937 5 29 C5.10248047 30.7015625 5.10248047 30.7015625 5.20703125 32.4375 C6.13907451 42.27004427 8.76127381 52.76127381 16 60 C15.34 60.99 14.68 61.98 14 63 C13.01 63 12.02 63 11 63 C11.50645534 71.68517024 12.02295299 80.35209459 13 89 C11.0625 89.5625 11.0625 89.5625 9 90 C7.10114904 88.10114904 7.87632494 85.42752097 7.8671875 82.91015625 C8 81 8 81 9 79 C9.2322646 76.28737884 9.41936235 73.59226874 9.5625 70.875 C9.60568359 70.12089844 9.64886719 69.36679687 9.69335938 68.58984375 C9.7994832 66.72678112 9.90025001 64.86341476 10 63 C8.90945313 62.86851562 7.81890625 62.73703125 6.6953125 62.6015625 C1.05188134 61.6828644 -2.38495085 59.04255337 -5.9375 54.6875 C-7.88104535 51.78464059 -8.00038061 51.02245625 -7.9375 47.3125 C-7 44 -7 44 -5.875 41.875 C-4.66265466 39.27711714 -5.42250549 37.8022049 -6 35 C-6.257828 31.42724062 -6.44164667 27.85483132 -6.62109375 24.27734375 C-7.15984488 19.61742416 -8.56634545 17.12150413 -12 14 C-11.0925 13.690625 -10.185 13.38125 -9.25 13.0625 C-5.25667792 10.52827638 -4.47261788 8.3676504 -2.859375 4.05859375 C-2 2 -2 2 0 0 Z " fill="#F7B756" transform="translate(771,887)"/>
<path d="M0 0 C0.02917234 3.87498404 0.04685673 7.74993958 0.0625 11.625 C0.07087891 12.71941406 0.07925781 13.81382812 0.08789062 14.94140625 C0.09111328 16.00488281 0.09433594 17.06835938 0.09765625 18.1640625 C0.10289307 19.13811035 0.10812988 20.1121582 0.11352539 21.11572266 C0 24 0 24 -0.56469727 27.18505859 C-1.105965 30.68523636 -0.13221255 32.66996309 1 36 C1.61512027 38.86289622 1.81539456 41.16703104 1 44 C-0.79345703 45.03955078 -0.79345703 45.03955078 -3.0078125 46.0703125 C-5.35986627 47.73101609 -6.75583485 48.97044095 -7.43328857 51.82702637 C-8.03307209 57.49601635 -7.725059 63.19119871 -7.5 68.875 C-7.45984579 70.63012767 -7.42334838 72.38534306 -7.390625 74.140625 C-7.30271886 78.42925532 -7.16483465 82.71366505 -7 87 C-8.32 86.67 -9.64 86.34 -11 86 C-10.83701416 84.98542725 -10.67402832 83.97085449 -10.50610352 82.92553711 C-10.03690259 79.28623091 -9.88545514 75.85623489 -9.90234375 72.19140625 C-9.90556641 70.95068359 -9.90878906 69.70996094 -9.91210938 68.43164062 C-9.92048828 67.15482422 -9.92886719 65.87800781 -9.9375 64.5625 C-9.94201172 63.25861328 -9.94652344 61.95472656 -9.95117188 60.61132812 C-9.96290749 57.40750448 -9.97932637 54.20377637 -10 51 C-10.99 50.67 -11.98 50.34 -13 50 C-12.99476318 48.89076172 -12.98952637 47.78152344 -12.98413086 46.63867188 C-12.96592828 42.49382342 -12.95451257 38.34897846 -12.94506836 34.20410156 C-12.94006286 32.41568404 -12.93325645 30.62727057 -12.92456055 28.83886719 C-12.91232834 26.25715126 -12.90673372 23.67548979 -12.90234375 21.09375 C-12.89718246 20.30383667 -12.89202118 19.51392334 -12.88670349 18.70007324 C-12.88632748 14.91568408 -13.0588037 11.32644693 -13.64282227 7.58398438 C-13.76069092 6.40126953 -13.87855957 5.21855469 -14 4 C-9.61765613 -0.88318317 -6.08783217 -1.31168752 0 0 Z " fill="#F4B455" transform="translate(907,900)"/>
<path d="M0 0 C1.46463311 2.92926622 1.13182708 5.55256781 1.125 8.8125 C1.12757813 10.03582031 1.13015625 11.25914062 1.1328125 12.51953125 C1.01945473 15.49017156 0.69145246 18.1189481 0 21 C1.32 21 2.64 21 4 21 C3.67 19.88625 3.34 18.7725 3 17.625 C1.79708315 12.80474034 1.40287515 7.94384249 2 3 C2.66 2.01 3.32 1.02 4 0 C9.70967418 5.96920483 13.82736481 12.07989708 14.125 20.5625 C12.56270345 25.33618392 9.92217133 28.9572968 7 33 C6.24516641 34.18443341 5.4943903 35.37147551 4.75 36.5625 C3.88375 37.7690625 3.88375 37.7690625 3 39 C2.34 39 1.68 39 1 39 C-1.48328055 35.66349191 -3.5055425 32.01295234 -5.625 28.4375 C-6.23601563 27.44685547 -6.84703125 26.45621094 -7.4765625 25.43554688 C-13.16546642 15.87996607 -13.16546642 15.87996607 -12 10 C-10.57421875 7.63671875 -10.57421875 7.63671875 -8.6875 5.6875 C-8.07261719 5.03136719 -7.45773437 4.37523437 -6.82421875 3.69921875 C-2.85287356 0 -2.85287356 0 0 0 Z " fill="#080603" transform="translate(933,907)"/>
<path d="M0 0 C0.0270203 2.75006608 0.04684883 5.49986546 0.0625 8.25 C0.07087891 9.02730469 0.07925781 9.80460938 0.08789062 10.60546875 C0.09111328 11.35957031 0.09433594 12.11367188 0.09765625 12.890625 C0.10289307 13.58188477 0.10812988 14.27314453 0.11352539 14.98535156 C-0.00562029 17.09973898 -0.42381763 18.96641515 -1 21 C0.32 21 1.64 21 3 21 C2.83628906 20.34644531 2.67257812 19.69289063 2.50390625 19.01953125 C1.87151437 15.23008226 1.89303291 11.51509049 1.9375 7.6875 C1.94201172 6.94693359 1.94652344 6.20636719 1.95117188 5.44335938 C1.96287825 3.62887101 1.98081102 1.81442466 2 0 C5.83399908 1.47205604 7.17752164 3.41874611 9.1875 6.9375 C9.69667969 7.81277344 10.20585938 8.68804688 10.73046875 9.58984375 C13.03899503 13.9724921 13.9979707 18.12191922 13 23 C10.97108059 26.88921549 8.50742438 30.40799377 6 34 C4.9865759 35.65853832 3.98216635 37.32276208 3 39 C-1.93594399 37.35468534 -3.58136625 32.80979008 -6.1875 28.5 C-6.74630859 27.62601563 -7.30511719 26.75203125 -7.88085938 25.8515625 C-11.23860141 20.3250225 -13.4374104 15.53910018 -12 9 C-9.45464227 4.40661701 -5.3968604 0 0 0 Z " fill="#070502" transform="translate(545,907)"/>
<path d="M0 0 C3.67809371 0.25077912 5.50070028 0.51496598 8.1875 3.125 C12.05428957 9.25852829 14.0824593 14.74611688 13 22 C12.34 22.99 11.68 23.98 11 25 C10.57796044 27.93560139 10.57796044 27.93560139 10.4375 31.125 C10.09808917 36.90191083 10.09808917 36.90191083 9 38 C6.81360547 38.07258946 4.62499611 38.08373783 2.4375 38.0625 C0.64119141 38.04896484 0.64119141 38.04896484 -1.19140625 38.03515625 C-2.11824219 38.02355469 -3.04507813 38.01195312 -4 38 C-7.44572039 31.68284595 -7.31461385 26.09629025 -7 19 C-6.01 18.67 -5.02 18.34 -4 18 C-2.18638022 14.37276044 -2.58908679 10.06878043 -2.37890625 6.06640625 C-2 3 -2 3 0 0 Z " fill="#060402" transform="translate(858,904)"/>
<path d="M0 0 C3.67809371 0.25077912 5.50070028 0.51496598 8.1875 3.125 C12.05428957 9.25852829 14.0824593 14.74611688 13 22 C12.34 22.99 11.68 23.98 11 25 C10.57796044 27.93560139 10.57796044 27.93560139 10.4375 31.125 C10.09808917 36.90191083 10.09808917 36.90191083 9 38 C6.81360547 38.07258946 4.62499611 38.08373783 2.4375 38.0625 C0.64119141 38.04896484 0.64119141 38.04896484 -1.19140625 38.03515625 C-2.11824219 38.02355469 -3.04507813 38.01195312 -4 38 C-7.44572039 31.68284595 -7.31461385 26.09629025 -7 19 C-6.01 18.67 -5.02 18.34 -4 18 C-2.18638022 14.37276044 -2.58908679 10.06878043 -2.37890625 6.06640625 C-2 3 -2 3 0 0 Z " fill="#060402" transform="translate(591,904)"/>
<path d="M0 0 C1.70703125 0.734375 1.70703125 0.734375 2.70703125 1.734375 C3.47694673 9.43352985 0.40762545 13.85863225 -4.29296875 19.734375 C-6.0859375 19.5390625 -6.0859375 19.5390625 -8.29296875 18.734375 C-10.03125 16.5546875 -10.03125 16.5546875 -11.60546875 13.859375 C-12.13785156 12.97507812 -12.67023438 12.09078125 -13.21875 11.1796875 C-14.29296875 8.734375 -14.29296875 8.734375 -13.29296875 5.734375 C-10.9296875 4.09375 -10.9296875 4.09375 -7.98046875 2.484375 C-6.53220703 1.67226563 -6.53220703 1.67226563 -5.0546875 0.84375 C-2.29296875 -0.265625 -2.29296875 -0.265625 0 0 Z " fill="#090603" transform="translate(266.29296875,922.265625)"/>
<path d="M0 0 C1.46650366 2.93300732 1.36440295 4.72037344 1 8 C-1.06058068 12.20867637 -3.59913666 15.77865437 -7 19 C-10.74182726 17.75272425 -11.28306091 16.49563103 -13.3125 13.1875 C-13.86550781 12.31480469 -14.41851562 11.44210937 -14.98828125 10.54296875 C-16 8 -16 8 -15.47265625 5.8515625 C-13.60684742 3.50569146 -11.8109615 2.50657011 -9.125 1.1875 C-8.26132813 0.74792969 -7.39765625 0.30835938 -6.5078125 -0.14453125 C-3.77876471 -1.07546811 -2.61996311 -1.14549957 0 0 Z " fill="#080602" transform="translate(126,923)"/>
<path d="M0 0 C1.65 0.33 3.3 0.66 5 1 C6.20680855 6.58148954 6.766318 12.32580268 6 18 C3.8125 21.25 3.8125 21.25 1 23 C-3.19047619 22.80952381 -3.19047619 22.80952381 -5 21 C-5.7788545 13.42285836 -5.71990213 7.5254237 -1.09375 1.29296875 C-0.7328125 0.86628906 -0.371875 0.43960938 0 0 Z " fill="#0A0703" transform="translate(395,881)"/>
<path d="M0 0 C7.59821429 5.13392857 7.59821429 5.13392857 9.3125 8.5625 C9.44665472 11.2348621 9.35568541 13.88500488 9.3125 16.5625 C7.889375 16.68625 7.889375 16.68625 6.4375 16.8125 C5.40625 17.06 4.375 17.3075 3.3125 17.5625 C2.09013798 19.54812946 2.09013798 19.54812946 1.3125 21.5625 C1.36083984 20.69238281 1.36083984 20.69238281 1.41015625 19.8046875 C1.37070443 17.14826518 1.16667432 15.08788495 0.3125 12.5625 C-1.80841149 10.58916684 -3.93437197 9.25886773 -6.4609375 7.8515625 C-8.58730535 6.62050743 -10.04661917 5.37276208 -11.6875 3.5625 C-3.76731496 -0.61328383 -3.76731496 -0.61328383 0 0 Z " fill="#F3B455" transform="translate(739.6875,879.4375)"/>
<path d="M0 0 C2.5 0.890625 2.5 0.890625 3.86328125 3 C4.17652344 3.87140625 4.48976563 4.7428125 4.8125 5.640625 C5.13863281 6.50171875 5.46476563 7.3628125 5.80078125 8.25 C6.50767217 10.91959924 6.63341722 13.14321847 6.5 15.890625 C2.31154456 15.29227422 -1.55748707 14.4492929 -5.5 12.890625 C-7.04586876 9.79888748 -6.79359521 7.29632948 -6.5 3.890625 C-4.49715158 0.92344216 -3.64275777 -0.15937065 0 0 Z " fill="#0D0A04" transform="translate(644.5,906.109375)"/>
<path d="M0 0 C0.33 0.66 0.66 1.32 1 2 C1.99 2.33 2.98 2.66 4 3 C4.02894547 6.45831586 4.04678 9.91660072 4.0625 13.375 C4.07087891 14.35984375 4.07925781 15.3446875 4.08789062 16.359375 C4.09111328 17.30039062 4.09433594 18.24140625 4.09765625 19.2109375 C4.10289307 20.08024902 4.10812988 20.94956055 4.11352539 21.84521484 C4 24 4 24 3 26 C1.33388095 26.042721 -0.33382885 26.04063832 -2 26 C-2.33 25.67 -2.66 25.34 -3 25 C-2.9140625 23.0390625 -2.9140625 23.0390625 -2.625 20.625 C-2.48964844 19.43777344 -2.48964844 19.43777344 -2.3515625 18.2265625 C-2 16 -2 16 -1 13 C-0.77548542 10.77425665 -0.59217122 8.54418481 -0.4375 6.3125 C-0.35371094 5.13300781 -0.26992188 3.95351563 -0.18359375 2.73828125 C-0.12300781 1.83464844 -0.06242188 0.93101562 0 0 Z " fill="#E1A64E" transform="translate(713,944)"/>
<path d="M0 0 C2 3 2 3 1.75 5.625 C1.5025 6.40875 1.255 7.1925 1 8 C-1.98594424 9.49297212 -4.70853624 9.11755228 -8 9 C-8.66 8.67 -9.32 8.34 -10 8 C-9.64505955 5.37344067 -9.27538036 3.42031739 -7.8125 1.1875 C-5.1218647 -0.57533002 -3.13475017 -0.40018087 0 0 Z " fill="#EBAE52" transform="translate(902,876)"/>
<path d="M0 0 C0.66 0.33 1.32 0.66 2 1 C2.33 9.91 2.66 18.82 3 28 C1.68 28.33 0.36 28.66 -1 29 C-1.33 28.67 -1.66 28.34 -2 28 C-1.94578506 25.92339777 -1.81805803 23.84864361 -1.66015625 21.77734375 C-1.56669922 20.51728516 -1.47324219 19.25722656 -1.37695312 17.95898438 C-1.27224932 16.61848068 -1.16743009 15.277986 -1.0625 13.9375 C-0.96110261 12.59313552 -0.86018483 11.24873477 -0.75976562 9.90429688 C-0.51124151 6.60247646 -0.25776609 3.30110971 0 0 Z " fill="#D9A14B" transform="translate(946,952)"/>
<path d="M0 0 C2.86768546 2.86768546 2.35348145 5.78652305 2.4140625 9.6328125 C2.44311172 10.76056595 2.44311172 10.76056595 2.4727478 11.91110229 C2.53259147 14.31561899 2.57894726 16.72018344 2.625 19.125 C2.66317546 20.75392728 2.70222693 22.38283428 2.7421875 24.01171875 C2.83829666 28.00764806 2.92230941 32.00367187 3 36 C1.68 35.67 0.36 35.34 -1 35 C-0.83701416 33.98542725 -0.67402832 32.97085449 -0.50610352 31.92553711 C-0.03690259 28.28623091 0.11454486 24.85623489 0.09765625 21.19140625 C0.09443359 19.95068359 0.09121094 18.70996094 0.08789062 17.43164062 C0.07951172 16.15482422 0.07113281 14.87800781 0.0625 13.5625 C0.05798828 12.25861328 0.05347656 10.95472656 0.04882812 9.61132812 C0.03709251 6.40750448 0.02067363 3.20377637 0 0 Z " fill="#BA8A40" transform="translate(897,951)"/>
<path d="M0 0 C0.33 0 0.66 0 1 0 C1.39328061 3.76916217 1.76147442 7.54036107 2.125 11.3125 C2.23714844 12.38435547 2.34929687 13.45621094 2.46484375 14.56054688 C2.56152344 15.58857422 2.65820312 16.61660156 2.7578125 17.67578125 C2.8520752 18.62364502 2.94633789 19.57150879 3.04345703 20.5480957 C3 23 3 23 1 26 C0.01 25.67 -0.98 25.34 -2 25 C-2.36011137 16.49737031 -1.2527717 8.38909618 0 0 Z " fill="#D9A14B" transform="translate(322,950)"/>
<path d="M0 0 C0.33 0 0.66 0 1 0 C1.04898438 0.92941406 1.09796875 1.85882812 1.1484375 2.81640625 C1.47396377 10.50901139 1.47396377 10.50901139 3.0625 18 C4.04901278 21.15684091 4.16030215 23.71380585 4 27 C2.0625 27.5625 2.0625 27.5625 0 28 C-1 27 -1 27 -1.02172852 24.40795898 C-0.97459717 23.28204346 -0.92746582 22.15612793 -0.87890625 20.99609375 C-0.83056641 19.78115234 -0.78222656 18.56621094 -0.73242188 17.31445312 C-0.67634766 16.03505859 -0.62027344 14.75566406 -0.5625 13.4375 C-0.51029297 12.15423828 -0.45808594 10.87097656 -0.40429688 9.54882812 C-0.2741304 6.36566609 -0.13914999 3.18277996 0 0 Z " fill="#CB9646" transform="translate(557,953)"/>
<path d="M0 0 C0.33 0 0.66 0 1 0 C2.38529821 5.45461169 3.2396943 10.36718401 3 16 C1.02 16.99 1.02 16.99 -1 18 C-3 15 -3 15 -2.6875 12.875 C-2.460625 11.92625 -2.23375 10.9775 -2 10 C-1.72930641 7.63244117 -1.50124155 5.26339096 -1.28125 2.890625 C-1 1 -1 1 0 0 Z " fill="#DBA24C" transform="translate(858,969)"/>
<path d="M0 0 C0.33 0 0.66 0 1 0 C2.38529821 5.45461169 3.2396943 10.36718401 3 16 C1.02 16.99 1.02 16.99 -1 18 C-3 15 -3 15 -2.6875 12.875 C-2.460625 11.92625 -2.23375 10.9775 -2 10 C-1.72930641 7.63244117 -1.50124155 5.26339096 -1.28125 2.890625 C-1 1 -1 1 0 0 Z " fill="#DBA24C" transform="translate(591,969)"/>
<path d="M0 0 C0.33 0 0.66 0 1 0 C1.33 8.91 1.66 17.82 2 27 C0.68 27.33 -0.64 27.66 -2 28 C-2.66 27.34 -3.32 26.68 -4 26 C-3.64700993 22.55834679 -2.95418308 20.93127462 -1 18 C-0.63648496 15.97457852 -0.63648496 15.97457852 -0.5859375 13.76953125 C-0.54726563 12.96708984 -0.50859375 12.16464844 -0.46875 11.33789062 C-0.4378125 10.50451172 -0.406875 9.67113281 -0.375 8.8125 C-0.33632813 7.96751953 -0.29765625 7.12253906 -0.2578125 6.25195312 C-0.16363721 4.16832476 -0.08073325 2.08419247 0 0 Z " fill="#D8A04B" transform="translate(636,955)"/>
<path d="M0 0 C0.33 0 0.66 0 1 0 C1.06058594 0.96679688 1.12117187 1.93359375 1.18359375 2.9296875 C1.65815155 10.30358562 2.1876074 17.65389666 3 25 C1.0625 25.5625 1.0625 25.5625 -1 26 C-2.89885096 24.10114904 -2.12367506 21.42752097 -2.1328125 18.91015625 C-2 17 -2 17 -1 15 C-0.76827173 12.45384991 -0.58105471 9.92603775 -0.4375 7.375 C-0.39431641 6.66859375 -0.35113281 5.9621875 -0.30664062 5.234375 C-0.20055249 3.48981463 -0.09977111 1.74493303 0 0 Z " fill="#E1A64E" transform="translate(781,951)"/>
<path d="M0 0 C0.33 0 0.66 0 1 0 C3.48063781 9.41002278 3.48063781 9.41002278 2 14 C0.35 13.67 -1.3 13.34 -3 13 C-2.52060632 8.28596212 -2.03165952 4.33420699 0 0 Z " fill="#EBAE52" transform="translate(402,970)"/>
<path d="M0 0 C2.61537297 3.95495425 2.44264274 8.16827373 2.625 12.75 C2.66367188 13.54277344 2.70234375 14.33554687 2.7421875 15.15234375 C2.836108 17.10119416 2.91912822 19.05056451 3 21 C2.01 21 1.02 21 0 21 C-0.99440216 16.2710653 -0.96565891 11.90729882 -0.5625 7.125 C-0.51029297 6.43664062 -0.45808594 5.74828125 -0.40429688 5.0390625 C-0.27594902 3.35887242 -0.13887775 1.67935251 0 0 Z " fill="#C89445" transform="translate(75,895)"/>
<path d="M0 0 C0.33 0 0.66 0 1 0 C1.66 7.59 2.32 15.18 3 23 C1.68 23.33 0.36 23.66 -1 24 C-0.67 16.08 -0.34 8.16 0 0 Z " fill="#D9A04B" transform="translate(205,962)"/>
<path d="M0 0 C0.33 0 0.66 0 1 0 C1.33 5.94 1.66 11.88 2 18 C0.68 18 -0.64 18 -2 18 C-1.85946128 15.37461716 -1.71281053 12.74982573 -1.5625 10.125 C-1.52318359 9.37863281 -1.48386719 8.63226562 -1.44335938 7.86328125 C-1.11328125 2.2265625 -1.11328125 2.2265625 0 0 Z " fill="#CB9646" transform="translate(546,910)"/>
<path d="M0 0 C0.66 0 1.32 0 2 0 C3.32286246 4.96073422 3.08893197 9.91111512 3 15 C2.01 15.33 1.02 15.66 0 16 C0 10.72 0 5.44 0 0 Z " fill="#C89445" transform="translate(742,967)"/>
<path d="M0 0 C0.33 0 0.66 0 1 0 C1.33965474 2.18652739 1.67142477 4.37428025 2 6.5625 C2.185625 7.78066406 2.37125 8.99882813 2.5625 10.25390625 C2.98555077 13.87627848 3.07501425 17.35712046 3 21 C2.01 20.67 1.02 20.34 0 20 C0.33 19.67 0.66 19.34 1 19 C0.34 18.67 -0.32 18.34 -1 18 C-0.505 9.09 -0.505 9.09 0 0 Z " fill="#ECAF52" transform="translate(253,952)"/>
<path d="M0 0 C0.33 0 0.66 0 1 0 C1.33 5.94 1.66 11.88 2 18 C0.68 17.67 -0.64 17.34 -2 17 C-2.125 11.25 -2.125 11.25 -1 9 C-0.77532169 7.46331135 -0.59203195 5.92031946 -0.4375 4.375 C-0.35371094 3.55773437 -0.26992188 2.74046875 -0.18359375 1.8984375 C-0.12300781 1.27195312 -0.06242187 0.64546875 0 0 Z " fill="#D49D49" transform="translate(500,899)"/>
<path d="M0 0 C0.33 0.66 0.66 1.32 1 2 C1.99 2.33 2.98 2.66 4 3 C3.67 7.62 3.34 12.24 3 17 C2.67 17 2.34 17 2 17 C1.67 15.35 1.34 13.7 1 12 C0.67 12 0.34 12 0 12 C0 8.04 0 4.08 0 0 Z " fill="#B6873F" transform="translate(713,944)"/>
<path d="M0 0 C0.33 0 0.66 0 1 0 C1 5.28 1 10.56 1 16 C0.01 15.67 -0.98 15.34 -2 15 C-1.85973717 12.68715544 -1.71264442 10.37472409 -1.5625 8.0625 C-1.48128906 6.77472656 -1.40007812 5.48695313 -1.31640625 4.16015625 C-1 1 -1 1 0 0 Z " fill="#EEB053" transform="translate(274,958)"/>
<path d="M0 0 C0.33 0 0.66 0 1 0 C1 5.61 1 11.22 1 17 C0.34 17 -0.32 17 -1 17 C-2.59854133 11.0853971 -1.25890714 5.84715547 0 0 Z " fill="#AB7F3B" transform="translate(78,960)"/>
<path d="M0 0 C1.61949011 2.57213134 2.04408751 3.67669159 1.625 6.75 C1.41875 7.4925 1.2125 8.235 1 9 C0.01 9 -0.98 9 -2 9 C-2.625 6.6875 -2.625 6.6875 -3 4 C-1 1 -1 1 0 0 Z " fill="#CD9847" transform="translate(112,964)"/>
<path d="M0 0 C0.99 0 1.98 0 3 0 C3 2.97 3 5.94 3 9 C1.68 8.67 0.36 8.34 -1 8 C-0.67 5.36 -0.34 2.72 0 0 Z " fill="#DAA24C" transform="translate(166,924)"/>
<path d="M0 0 C0.99 0.33 1.98 0.66 3 1 C3 2.65 3 4.3 3 6 C1.68 6 0.36 6 -1 6 C-1.042721 4.33388095 -1.04063832 2.66617115 -1 1 C-0.67 0.67 -0.34 0.34 0 0 Z " fill="#C49144" transform="translate(380,947)"/>
<path d="M0 0 C1.76462683 3.08809695 2 4.23312136 2 8 C0.68 8 -0.64 8 -2 8 C-2 6.35 -2 4.7 -2 3 C-1.34 3 -0.68 3 0 3 C0 2.01 0 1.02 0 0 Z " fill="#D69E4A" transform="translate(935,920)"/>
<path d="M0 0 C0.33 0 0.66 0 1 0 C1.33 3.3 1.66 6.6 2 10 C1.01 9.67 0.02 9.34 -1 9 C-1.125 2.25 -1.125 2.25 0 0 Z " fill="#E4A94F" transform="translate(157,952)"/>
<path d="M0 0 C2.1519437 3.22791555 2.20086443 4.28400809 2 8 C1.01 8 0.02 8 -1 8 C-0.67 5.36 -0.34 2.72 0 0 Z " fill="#EBAE52" transform="translate(804,954)"/>
<path d="M0 0 C0.66 0.66 1.32 1.32 2 2 C1.34 3.98 0.68 5.96 0 8 C-0.66 8 -1.32 8 -2 8 C-1.125 1.125 -1.125 1.125 0 0 Z " fill="#CF9948" transform="translate(528,942)"/>
<path d="M0 0 C0.66 0.33 1.32 0.66 2 1 C1.67 2.98 1.34 4.96 1 7 C0.01 6.67 -0.98 6.34 -2 6 C-1.34 4.02 -0.68 2.04 0 0 Z " fill="#D19B48" transform="translate(107,912)"/>
<path d="M0 0 C1.98 0.495 1.98 0.495 4 1 C4 1.99 4 2.98 4 4 C2.68 4.33 1.36 4.66 0 5 C-0.33 4.01 -0.66 3.02 -1 2 C-0.67 1.34 -0.34 0.68 0 0 Z " fill="#D39C49" transform="translate(741,904)"/>
<path d="M0 0 C0.66 0.33 1.32 0.66 2 1 C-0.625 5.875 -0.625 5.875 -4 7 C-2.92598892 4.08482708 -2.22189824 2.22189824 0 0 Z " fill="#E4A94F" transform="translate(931,903)"/>
<path d="M0 0 C0 1.65 0 3.3 0 5 C-1.32 4.67 -2.64 4.34 -4 4 C-4 3.01 -4 2.02 -4 1 C-2 0 -2 0 0 0 Z " fill="#DBA24C" transform="translate(900,982)"/>
<path d="M0 0 C0.66 0.66 1.32 1.32 2 2 C1.625 4.125 1.625 4.125 1 6 C0.01 6 -0.98 6 -2 6 C-1.34 4.02 -0.68 2.04 0 0 Z " fill="#D49D49" transform="translate(916,943)"/>
<path d="M0 0 C0.66 0.66 1.32 1.32 2 2 C1.625 4.125 1.625 4.125 1 6 C0.01 6 -0.98 6 -2 6 C-1.34 4.02 -0.68 2.04 0 0 Z " fill="#D49D49" transform="translate(863,907)"/>
<path d="M0 0 C0.66 0.66 1.32 1.32 2 2 C1.625 4.125 1.625 4.125 1 6 C0.01 6 -0.98 6 -2 6 C-1.34 4.02 -0.68 2.04 0 0 Z " fill="#D49D49" transform="translate(596,907)"/>
</svg>
